<?xml version="1.0" encoding="UTF-8"?>
<svg width="622px" height="343px" viewBox="0 0 622 343" version="1.1" xmlns="http://www.w3.org/2000/svg" xmlns:xlink="http://www.w3.org/1999/xlink">
    <!-- Generator: Sketch 55.1 (78136) - https://sketchapp.com -->
    <title>Hero Img Notaries</title>
    <desc>Created with Sketch.</desc>
    <defs>
        <polygon id="path-1" points="1 323.651 610.833 323.651 610.833 0 1 0"></polygon>
    </defs>
    <g id="Hero-Img-Notaries" stroke="none" stroke-width="1" fill="none" fill-rule="evenodd">
        <g id="Group-4" transform="translate(458.000000, 120.000000)">
            <g id="Group-60-Copy-4" transform="translate(0.752137, 0.923990)">
                <g id="Group-59" transform="translate(0.916510, 0.076010)"></g>
            </g>
        </g>
        <g id="Group-277" transform="translate(5.000000, 10.000000)">
            <path d="M259.7134,0.8871 C251.5294,2.0771 224.6824,7.1791 207.1194,28.5811 C197.0614,40.8381 199.6194,46.7791 188.6904,67.4161 C174.8584,93.5291 163.6374,97.4711 152.9764,114.0681 C136.1964,140.1891 134.0844,176.9871 143.7474,205.2331 C162.3254,259.5371 227.2344,290.4291 272.3244,280.4741 C302.9114,273.7221 303.0404,252.8831 331.8424,251.1951 C370.1914,248.9471 386.6894,284.9091 425.6384,279.8601 C444.8574,277.3671 457.9344,266.3941 465.3794,260.1461 C511.8064,221.1891 503.1234,150.6321 500.5774,134.5281 C497.8354,117.1831 489.7324,65.9241 456.7084,52.9541 C434.4514,44.2141 422.6714,61.4241 390.6454,53.1931 C367.0854,47.1381 368.0314,36.4311 334.3754,19.4681 C312.7094,8.5491 289.0424,-3.3789 259.7134,0.8871" id="Fill-1" fill="#63AFD9" opacity="0.320731027"></path>
            <mask id="mask-2" fill="white">
                <use xlink:href="#path-1"></use>
            </mask>
            <g id="Clip-4"></g>
            <polygon id="Fill-3" fill="#AFD2F4" points="38.069 283.242 39.272 283.242 39.272 272.91 38.069 272.91"></polygon>
            <path d="M38.6704,238.3129 C34.6894,238.3129 31.4484,241.5529 31.4484,245.5349 L31.4484,269.0049 C31.4484,272.9869 34.6894,276.2269 38.6704,276.2269 C42.6524,276.2269 45.8924,272.9869 45.8924,269.0049 L45.8924,245.5349 C45.8924,241.5529 42.6524,238.3129 38.6704,238.3129 M38.6704,277.4299 C34.0244,277.4299 30.2454,273.6509 30.2454,269.0049 L30.2454,245.5349 C30.2454,240.8889 34.0244,237.1099 38.6704,237.1099 C43.3164,237.1099 47.0964,240.8889 47.0964,245.5349 L47.0964,269.0049 C47.0964,273.6509 43.3164,277.4299 38.6704,277.4299" id="Fill-5" fill="#AFD2F4"></path>
            <path d="M18.7515,262.2143 C16.0765,262.2143 13.8995,264.3913 13.8995,267.0663 L13.8995,273.3383 C13.8995,276.0133 16.0765,278.1893 18.7515,278.1893 C21.4265,278.1893 23.6035,276.0133 23.6035,273.3383 L23.6035,267.0663 C23.6035,264.3913 21.4265,262.2143 18.7515,262.2143 M18.7515,279.3933 C15.4125,279.3933 12.6965,276.6763 12.6965,273.3383 L12.6965,267.0663 C12.6965,263.7273 15.4125,261.0113 18.7515,261.0113 C22.0905,261.0113 24.8075,263.7273 24.8075,267.0663 L24.8075,273.3383 C24.8075,276.6763 22.0905,279.3933 18.7515,279.3933" id="Fill-6" fill="#AFD2F4"></path>
            <polygon id="Fill-7" fill="#AFD2F4" points="18.15 283.242 19.354 283.242 19.354 275.774 18.15 275.774"></polygon>
            <path d="M586.1392,265.3285 C582.8142,265.3285 580.1092,268.0335 580.1092,271.3585 C580.1092,274.6835 582.8142,277.3895 586.1392,277.3895 C589.4642,277.3895 592.1692,274.6835 592.1692,271.3585 C592.1692,268.0335 589.4642,265.3285 586.1392,265.3285 M586.1392,278.5935 C582.1502,278.5935 578.9052,275.3485 578.9052,271.3585 C578.9052,267.3705 582.1502,264.1255 586.1392,264.1255 C590.1272,264.1255 593.3722,267.3705 593.3722,271.3585 C593.3722,275.3485 590.1272,278.5935 586.1392,278.5935" id="Fill-8" fill="#AFD2F4"></path>
            <path d="M586.1392,256.602 C584.1502,256.602 582.5322,258.22 582.5322,260.209 C582.5322,262.199 584.1502,263.817 586.1392,263.817 C588.1282,263.817 589.7462,262.199 589.7462,260.209 C589.7462,258.22 588.1282,256.602 586.1392,256.602 M586.1392,265.021 C583.4862,265.021 581.3272,262.862 581.3272,260.209 C581.3272,257.556 583.4862,255.398 586.1392,255.398 C588.7912,255.398 590.9502,257.556 590.9502,260.209 C590.9502,262.862 588.7912,265.021 586.1392,265.021" id="Fill-9" fill="#AFD2F4"></path>
            <polygon id="Fill-10" fill="#AFD2F4" points="585.537 283.242 586.741 283.242 586.741 273.178 585.537 273.178"></polygon>
            <polygon id="Fill-11" fill="#AFD2F4" points="0.999 284.547 610.833 284.547 610.833 283.344 0.999 283.344"></polygon>
            <path d="M77.5611,237.7817 L77.5611,240.5377 L120.6791,240.5367 L120.6791,237.7807 L77.5611,237.7817 Z M76.3581,241.7407 L76.3581,236.5787 L121.8831,236.5777 L121.8831,241.7407 L76.3581,241.7407 Z" id="Fill-12" fill="#AFD2F4"></path>
            <path d="M121.5679,223.142 L76.6729,223.143 C75.5459,223.143 74.6299,224.06 74.6299,225.187 L74.6299,232.892 C74.6299,235.071 76.4019,236.844 78.5819,236.844 L119.6589,236.843 C121.8389,236.843 123.6119,235.071 123.6119,232.891 L123.6119,225.186 C123.6119,224.059 122.6949,223.142 121.5679,223.142 L121.5679,223.142 Z M78.5819,238.047 C75.7389,238.047 73.4249,235.735 73.4249,232.892 L73.4249,225.187 C73.4249,223.396 74.8819,221.939 76.6729,221.939 L121.5679,221.939 C123.3589,221.939 124.8149,223.396 124.8149,225.186 L124.8149,232.891 C124.8149,235.734 122.5019,238.047 119.6589,238.047 L78.5819,238.047 Z" id="Fill-13" fill="#AFD2F4"></path>
            <path d="M80.3443,209.184 C79.4263,209.184 78.5633,209.541 77.9133,210.191 C77.2653,210.84 76.9073,211.704 76.9073,212.622 L76.9073,221.852 L121.3323,221.851 L121.3323,212.621 C121.3323,210.725 119.7903,209.183 117.8963,209.183 L111.5423,209.184 L111.5423,198.963 C111.5413,191.872 110.0393,184.997 107.1983,179.081 L104.3303,173.109 C102.9853,170.307 102.2873,167.056 102.3133,163.706 L102.3663,156.674 L102.7473,156.526 C106.6153,155.018 109.1143,151.363 109.1143,147.214 C109.1133,141.703 104.6293,137.22 99.1183,137.22 C93.6083,137.22 89.1243,141.703 89.1243,147.214 C89.1253,151.356 91.6173,155.008 95.4763,156.52 L95.8653,156.672 L95.7533,164.119 C95.7083,167.199 95.0433,170.203 93.8303,172.805 L90.8403,179.225 C88.1303,185.044 86.6983,191.774 86.6983,198.687 L86.6983,209.184 L80.3443,209.184 Z M75.7033,223.055 L75.7033,212.622 C75.7033,211.382 76.1863,210.216 77.0633,209.34 C77.9393,208.463 79.1043,207.981 80.3443,207.981 L85.4943,207.981 L85.4943,198.687 C85.4933,191.6 86.9653,184.694 89.7493,178.717 L92.7403,172.297 C93.8813,169.847 94.5063,167.013 94.5503,164.1 L94.6493,157.48 C90.5483,155.699 87.9213,151.714 87.9213,147.214 C87.9213,141.039 92.9443,136.016 99.1183,136.016 C105.2933,136.016 110.3173,141.039 110.3173,147.214 C110.3173,151.725 107.6803,155.715 103.5643,157.492 L103.5163,163.716 C103.4923,166.882 104.1493,169.951 105.4163,172.587 L108.2843,178.56 C111.2023,184.636 112.7453,191.692 112.7453,198.963 L112.7453,207.98 L117.8963,207.98 C120.4543,207.98 122.5353,210.062 122.5363,212.621 L122.5363,223.055 L75.7033,223.055 Z" id="Fill-14" fill="#AFD2F4"></path>
            <path d="M77.882,280.423 L174.9,280.423 L174.9,265.938 L77.882,265.938 L77.882,280.423 Z M76.679,281.626 L176.103,281.626 L176.103,264.733 L76.679,264.733 L76.679,281.626 Z" id="Fill-16" fill="#AFD2F4"></path>
            <path d="M76.7359,263.1547 C71.4769,263.4667 67.2949,267.8437 67.2949,273.1797 C67.2949,278.5157 71.4769,282.8927 76.7359,283.2057 L76.7359,263.1547 Z M77.9389,284.4267 L77.3379,284.4267 C71.1359,284.4267 66.0909,279.3827 66.0909,273.1797 C66.0909,266.9787 71.1359,261.9337 77.3379,261.9337 L77.9389,261.9337 L77.9389,284.4267 Z" id="Fill-18" fill="#AFD2F4"></path>
            <path d="M175.2114,272.3608 L90.9974,272.3608" id="Fill-19" fill="#AFD2F4"></path>
            <polygon id="Fill-20" fill="#AFD2F4" points="90.997 272.962 175.211 272.962 175.211 271.759 90.997 271.759"></polygon>
            <path d="M66.66,259.027 L163.678,259.027 L163.678,244.542 L66.66,244.542 L66.66,259.027 Z M65.455,260.23 L164.88,260.23 L164.88,243.338 L65.455,243.338 L65.455,260.23 Z" id="Fill-22" fill="#AFD2F4"></path>
            <path d="M65.7056,253.7455 L130.1826,253.7455" id="Fill-23" fill="#AFD2F4"></path>
            <polygon id="Fill-24" fill="#AFD2F4" points="65.705 254.347 130.182 254.347 130.182 253.143 65.705 253.143"></polygon>
            <path d="M85.6919,249.8227 L164.5699,249.8227" id="Fill-25" fill="#AFD2F4"></path>
            <polygon id="Fill-26" fill="#AFD2F4" points="85.692 250.425 164.57 250.425 164.57 249.221 85.692 249.221"></polygon>
            <path d="M64.212,243.338 L163.677,243.338 L163.677,241.74 L64.212,241.74 L64.212,243.338 Z M63.009,244.541 L164.88,244.541 L164.88,240.537 L63.009,240.537 L63.009,244.541 Z" id="Fill-28" fill="#AFD2F4"></path>
            <path d="M77.882,283.223 L177.347,283.223 L177.347,281.626 L77.882,281.626 L77.882,283.223 Z M76.679,284.427 L178.55,284.427 L178.55,280.423 L76.679,280.423 L76.679,284.427 Z" id="Fill-30" fill="#AFD2F4"></path>
            <path d="M77.882,264.734 L177.347,264.734 L177.347,263.137 L77.882,263.137 L77.882,264.734 Z M76.679,265.938 L178.55,265.938 L178.55,261.934 L76.679,261.934 L76.679,265.938 Z" id="Fill-32" fill="#AFD2F4"></path>
            <path d="M64.212,261.827 L163.677,261.827 L163.677,260.23 L64.212,260.23 L64.212,261.827 Z M63.009,263.031 L164.88,263.031 L164.88,259.027 L63.009,259.027 L63.009,263.031 Z" id="Fill-34" fill="#AFD2F4"></path>
            <path d="M164.8804,241.7582 L164.8804,261.8092 C170.1394,261.4962 174.3214,257.1192 174.3214,251.7832 C174.3214,246.4482 170.1394,242.0712 164.8804,241.7582 M164.2784,263.0302 L163.6774,263.0302 L163.6774,240.5372 L164.2784,240.5372 C170.4804,240.5372 175.5264,245.5822 175.5264,251.7832 C175.5264,257.9862 170.4804,263.0302 164.2784,263.0302" id="Fill-36" fill="#AFD2F4"></path>
            <path d="M158.0161,171.9701 C153.2911,171.9701 148.5001,173.0621 144.0191,175.3681 C136.7281,179.1211 131.3341,185.4891 128.8321,193.2971 C126.3301,201.1061 127.0191,209.4221 130.7721,216.7121 C134.5241,224.0031 140.8901,229.3971 148.7001,231.8991 C156.5091,234.4011 164.8251,233.7121 172.1161,229.9601 C179.4061,226.2071 184.7991,219.8411 187.3011,212.0331 C189.8031,204.2231 189.1151,195.9071 185.3631,188.6161 C179.9231,178.0471 169.1571,171.9701 158.0161,171.9701 M158.1021,234.5821 C154.8281,234.5821 151.5391,234.0731 148.3321,233.0451 C140.2171,230.4451 133.6011,224.8401 129.7021,217.2631 C125.8011,209.6871 125.0861,201.0451 127.6861,192.9301 C130.2871,184.8151 135.8911,178.1981 143.4681,174.2981 C159.1101,166.2481 178.3831,172.4251 186.4331,188.0661 C190.3321,195.6431 191.0471,204.2841 188.4481,212.4001 C185.8471,220.5141 180.2431,227.1311 172.6661,231.0311 C168.0831,233.3891 163.1121,234.5821 158.1021,234.5821 M141.3451,170.1751 C132.6671,174.6411 126.2471,182.2201 123.2691,191.5141 C120.2911,200.8101 121.1111,210.7081 125.5781,219.3861 C130.0431,228.0651 137.6221,234.4851 146.9161,237.4621 C156.2121,240.4411 166.1101,239.6211 174.7881,235.1551 C183.4671,230.6881 189.8871,223.1101 192.8651,213.8151 C195.8431,204.5201 195.0241,194.6211 190.5571,185.9431 C186.0901,177.2641 178.5121,170.8451 169.2171,167.8661 C159.9211,164.8881 150.0241,165.7081 141.3451,170.1751 M158.1091,240.4281 C154.2361,240.4281 150.3441,239.8241 146.5491,238.6091 C136.9491,235.5331 129.1201,228.9021 124.5061,219.9371 C119.8931,210.9731 119.0461,200.7481 122.1231,191.1481 C125.2001,181.5461 131.8301,173.7181 140.7941,169.1051 C149.7591,164.4911 159.9851,163.6451 169.5841,166.7201 C179.1851,169.7971 187.0131,176.4281 191.6271,185.3921 C196.2411,194.3571 197.0871,204.5811 194.0111,214.1821 C190.9351,223.7831 184.3031,231.6111 175.3391,236.2251 C169.9171,239.0151 164.0361,240.4281 158.1091,240.4281" id="Fill-37" fill="#AFD2F4"></path>
            <path d="M171.2661,238.1469 L191.5151,277.4899 L199.5231,273.3689 L179.2741,234.0249 L171.2661,238.1469 Z M190.9951,279.1109 L169.6451,237.6269 L179.7931,232.4039 L201.1441,273.8879 L190.9951,279.1109 Z" id="Fill-38" fill="#AFD2F4"></path>
            <path d="M171.2661,238.1469 L191.5151,277.4899 L194.6021,275.9009 L174.3531,236.5579 L171.2661,238.1469 Z M190.9951,279.1109 L169.6451,237.6269 L174.8721,234.9359 L196.2231,276.4199 L190.9951,279.1109 Z" id="Fill-39" fill="#AFD2F4"></path>
            <path d="M190.7866,279.2748 L192.7716,283.1328 L203.3846,277.6708 L201.3986,273.8128 L190.7866,279.2748 Z M192.6546,284.4318 C192.5596,284.4318 192.4636,284.4168 192.3696,284.3868 C192.1336,284.3108 191.9406,284.1478 191.8266,283.9268 L189.5916,279.5828 C189.3556,279.1268 189.5366,278.5638 189.9926,278.3298 L201.0906,272.6178 C201.3116,272.5038 201.5636,272.4838 201.8006,272.5588 C202.0376,272.6348 202.2296,272.7978 202.3446,273.0198 L204.5796,277.3628 C204.8136,277.8188 204.6336,278.3808 204.1796,278.6158 L204.1786,278.6168 L193.0796,284.3288 C192.9466,284.3968 192.8016,284.4318 192.6546,284.4318 L192.6546,284.4318 Z" id="Fill-40" fill="#AFD2F4"></path>
            <path d="M447.104,301.1752 C447.104,307.5112 390.195,312.6472 319.994,312.6472 C249.791,312.6472 192.882,307.5112 192.882,301.1752 C192.882,294.8392 249.791,289.7022 319.994,289.7022 C390.195,289.7022 447.104,294.8392 447.104,301.1752" id="Fill-41" fill="#357BA3" opacity="0.60328311"></path>
            <path d="M254.9038,319.1606 C254.9038,321.6406 232.6298,323.6506 205.1528,323.6506 C177.6768,323.6506 155.4028,321.6406 155.4028,319.1606 C155.4028,316.6816 177.6768,314.6706 205.1528,314.6706 C232.6298,314.6706 254.9038,316.6816 254.9038,319.1606" id="Fill-42" fill="#357BA3" opacity="0.60328311"></path>
            <path d="M403.9341,303.9399 L216.9611,303.9399 C214.7421,303.9399 212.9421,302.1409 212.9421,299.9199 L212.9421,14.2989 C212.9421,12.0789 214.7421,10.2789 216.9611,10.2789 L403.9341,10.2789 C406.1551,10.2789 407.9541,12.0789 407.9541,14.2989 L407.9541,299.9199 C407.9541,302.1409 406.1551,303.9399 403.9341,303.9399" id="Fill-43" fill="#92C5ED"></path>
            <path d="M216.9614,10.8813 C215.0764,10.8813 213.5444,12.4143 213.5444,14.2983 L213.5444,299.9203 C213.5444,301.8053 215.0764,303.3383 216.9614,303.3383 L403.9344,303.3383 C405.8184,303.3383 407.3524,301.8053 407.3524,299.9203 L407.3524,14.2983 C407.3524,12.4143 405.8184,10.8813 403.9344,10.8813 L216.9614,10.8813 Z M403.9344,304.5423 L216.9614,304.5423 C214.4134,304.5423 212.3404,302.4693 212.3404,299.9203 L212.3404,14.2983 C212.3404,11.7513 214.4134,9.6773 216.9614,9.6773 L403.9344,9.6773 C406.4824,9.6773 408.5564,11.7513 408.5564,14.2983 L408.5564,299.9203 C408.5564,302.4693 406.4824,304.5423 403.9344,304.5423 L403.9344,304.5423 Z" id="Fill-44" fill="#1C3355"></path>
            <path d="M237.94,289.394 L218.901,289.394 C217.726,289.394 216.774,288.442 216.774,287.267 L216.774,214.185 C216.774,213.011 217.726,212.058 218.901,212.058 L237.94,212.058 C239.115,212.058 240.067,213.011 240.067,214.185 L240.067,287.267 C240.067,288.442 239.115,289.394 237.94,289.394" id="Fill-45" fill="#FFFFFF"></path>
            <path d="M218.9009,212.6606 C218.0589,212.6606 217.3759,213.3446 217.3759,214.1856 L217.3759,287.2666 C217.3759,288.1076 218.0589,288.7926 218.9009,288.7926 L237.9399,288.7926 C238.7809,288.7926 239.4649,288.1076 239.4649,287.2666 L239.4649,214.1856 C239.4649,213.3446 238.7809,212.6606 237.9399,212.6606 L218.9009,212.6606 Z M237.9399,289.9966 L218.9009,289.9966 C217.3959,289.9966 216.1719,288.7716 216.1719,287.2666 L216.1719,214.1856 C216.1719,212.6816 217.3959,211.4566 218.9009,211.4566 L237.9399,211.4566 C239.4449,211.4566 240.6689,212.6816 240.6689,214.1856 L240.6689,287.2666 C240.6689,288.7716 239.4449,289.9966 237.9399,289.9966 L237.9399,289.9966 Z" id="Fill-46" fill="#1C3355"></path>
            <path d="M235.1548,275.3422 L221.6858,275.3422 C220.9418,275.3422 220.3388,274.7382 220.3388,273.9942 L220.3388,268.8282 C220.3388,268.0832 220.9418,267.4802 221.6858,267.4802 L235.1548,267.4802 C235.8988,267.4802 236.5028,268.0832 236.5028,268.8282 L236.5028,273.9942 C236.5028,274.7382 235.8988,275.3422 235.1548,275.3422" id="Fill-47" fill="#92C5ED"></path>
            <polygon id="Fill-48" fill="#52A1CA" points="220.704 224.031 236.502 224.031 236.502 222.827 220.704 222.827"></polygon>
            <polygon id="Fill-49" fill="#52A1CA" points="220.705 229.013 227.12 229.013 227.12 227.81 220.705 227.81"></polygon>
            <polygon id="Fill-50" fill="#52A1CA" points="230.088 229.013 236.502 229.013 236.502 227.81 230.088 227.81"></polygon>
            <polygon id="Fill-51" fill="#52A1CA" points="220.705 233.997 227.12 233.997 227.12 232.793 220.705 232.793"></polygon>
            <path d="M261.3784,289.394 L242.3384,289.394 C241.1634,289.394 240.2114,288.442 240.2114,287.267 L240.2114,214.185 C240.2114,213.011 241.1634,212.058 242.3384,212.058 L261.3784,212.058 C262.5534,212.058 263.5054,213.011 263.5054,214.185 L263.5054,287.267 C263.5054,288.442 262.5534,289.394 261.3784,289.394" id="Fill-52" fill="#FFFFFF"></path>
            <path d="M242.3384,212.6606 C241.4974,212.6606 240.8134,213.3446 240.8134,214.1856 L240.8134,287.2666 C240.8134,288.1076 241.4974,288.7926 242.3384,288.7926 L261.3784,288.7926 C262.2194,288.7926 262.9034,288.1076 262.9034,287.2666 L262.9034,214.1856 C262.9034,213.3446 262.2194,212.6606 261.3784,212.6606 L242.3384,212.6606 Z M261.3784,289.9966 L242.3384,289.9966 C240.8334,289.9966 239.6094,288.7716 239.6094,287.2666 L239.6094,214.1856 C239.6094,212.6816 240.8334,211.4566 242.3384,211.4566 L261.3784,211.4566 C262.8834,211.4566 264.1074,212.6816 264.1074,214.1856 L264.1074,287.2666 C264.1074,288.7716 262.8834,289.9966 261.3784,289.9966 L261.3784,289.9966 Z" id="Fill-53" fill="#1C3355"></path>
            <path d="M258.5923,275.3422 L245.1243,275.3422 C244.3793,275.3422 243.7763,274.7382 243.7763,273.9942 L243.7763,268.8282 C243.7763,268.0832 244.3793,267.4802 245.1243,267.4802 L258.5923,267.4802 C259.3373,267.4802 259.9413,268.0832 259.9413,268.8282 L259.9413,273.9942 C259.9413,274.7382 259.3373,275.3422 258.5923,275.3422" id="Fill-54" fill="#92C5ED"></path>
            <polygon id="Fill-55" fill="#52A1CA" points="244.143 224.031 259.941 224.031 259.941 222.827 244.143 222.827"></polygon>
            <polygon id="Fill-56" fill="#52A1CA" points="244.143 229.013 250.557 229.013 250.557 227.81 244.143 227.81"></polygon>
            <polygon id="Fill-57" fill="#52A1CA" points="253.526 229.013 259.941 229.013 259.941 227.81 253.526 227.81"></polygon>
            <polygon id="Fill-58" fill="#52A1CA" points="244.143 233.997 250.557 233.997 250.557 232.793 244.143 232.793"></polygon>
            <path d="M284.8355,289.394 L265.7955,289.394 C264.6205,289.394 263.6685,288.442 263.6685,287.267 L263.6685,214.185 C263.6685,213.011 264.6205,212.058 265.7955,212.058 L284.8355,212.058 C286.0105,212.058 286.9625,213.011 286.9625,214.185 L286.9625,287.267 C286.9625,288.442 286.0105,289.394 284.8355,289.394" id="Fill-59" fill="#FFFFFF"></path>
            <path d="M265.7954,212.6606 C264.9544,212.6606 264.2704,213.3446 264.2704,214.1856 L264.2704,287.2666 C264.2704,288.1076 264.9544,288.7926 265.7954,288.7926 L284.8354,288.7926 C285.6764,288.7926 286.3604,288.1076 286.3604,287.2666 L286.3604,214.1856 C286.3604,213.3446 285.6764,212.6606 284.8354,212.6606 L265.7954,212.6606 Z M284.8354,289.9966 L265.7954,289.9966 C264.2904,289.9966 263.0664,288.7716 263.0664,287.2666 L263.0664,214.1856 C263.0664,212.6816 264.2904,211.4566 265.7954,211.4566 L284.8354,211.4566 C286.3404,211.4566 287.5644,212.6816 287.5644,214.1856 L287.5644,287.2666 C287.5644,288.7716 286.3404,289.9966 284.8354,289.9966 L284.8354,289.9966 Z" id="Fill-60" fill="#1C3355"></path>
            <path d="M282.0493,275.3422 L268.5813,275.3422 C267.8363,275.3422 267.2333,274.7382 267.2333,273.9942 L267.2333,268.8282 C267.2333,268.0832 267.8363,267.4802 268.5813,267.4802 L282.0493,267.4802 C282.7943,267.4802 283.3983,268.0832 283.3983,268.8282 L283.3983,273.9942 C283.3983,274.7382 282.7943,275.3422 282.0493,275.3422" id="Fill-61" fill="#92C5ED"></path>
            <polygon id="Fill-62" fill="#52A1CA" points="267.599 224.031 283.398 224.031 283.398 222.827 267.599 222.827"></polygon>
            <polygon id="Fill-63" fill="#52A1CA" points="267.599 229.013 274.014 229.013 274.014 227.81 267.599 227.81"></polygon>
            <polygon id="Fill-64" fill="#52A1CA" points="276.983 229.013 283.398 229.013 283.398 227.81 276.983 227.81"></polygon>
            <polygon id="Fill-65" fill="#52A1CA" points="267.599 233.997 274.014 233.997 274.014 232.793 267.599 232.793"></polygon>
            <path d="M308.2925,289.394 L289.2535,289.394 C288.0785,289.394 287.1255,288.442 287.1255,287.267 L287.1255,214.185 C287.1255,213.011 288.0785,212.058 289.2535,212.058 L308.2925,212.058 C309.4675,212.058 310.4195,213.011 310.4195,214.185 L310.4195,287.267 C310.4195,288.442 309.4675,289.394 308.2925,289.394" id="Fill-66" fill="#FFFFFF"></path>
            <path d="M289.2534,212.6606 C288.4114,212.6606 287.7284,213.3446 287.7284,214.1856 L287.7284,287.2666 C287.7284,288.1076 288.4114,288.7926 289.2534,288.7926 L308.2924,288.7926 C309.1334,288.7926 309.8174,288.1076 309.8174,287.2666 L309.8174,214.1856 C309.8174,213.3446 309.1334,212.6606 308.2924,212.6606 L289.2534,212.6606 Z M308.2924,289.9966 L289.2534,289.9966 C287.7484,289.9966 286.5244,288.7716 286.5244,287.2666 L286.5244,214.1856 C286.5244,212.6816 287.7484,211.4566 289.2534,211.4566 L308.2924,211.4566 C309.7974,211.4566 311.0224,212.6816 311.0224,214.1856 L311.0224,287.2666 C311.0224,288.7716 309.7974,289.9966 308.2924,289.9966 L308.2924,289.9966 Z" id="Fill-67" fill="#1C3355"></path>
            <path d="M305.5074,275.3422 L292.0384,275.3422 C291.2944,275.3422 290.6904,274.7382 290.6904,273.9942 L290.6904,268.8282 C290.6904,268.0832 291.2944,267.4802 292.0384,267.4802 L305.5074,267.4802 C306.2514,267.4802 306.8554,268.0832 306.8554,268.8282 L306.8554,273.9942 C306.8554,274.7382 306.2514,275.3422 305.5074,275.3422" id="Fill-68" fill="#92C5ED"></path>
            <polygon id="Fill-69" fill="#52A1CA" points="291.057 224.031 306.855 224.031 306.855 222.827 291.057 222.827"></polygon>
            <polygon id="Fill-70" fill="#52A1CA" points="291.057 229.013 297.472 229.013 297.472 227.81 291.057 227.81"></polygon>
            <polygon id="Fill-71" fill="#52A1CA" points="300.44 229.013 306.855 229.013 306.855 227.81 300.44 227.81"></polygon>
            <polygon id="Fill-72" fill="#52A1CA" points="291.057 233.997 297.472 233.997 297.472 232.793 291.057 232.793"></polygon>
            <path d="M331.7495,289.394 L312.7105,289.394 C311.5355,289.394 310.5835,288.442 310.5835,287.267 L310.5835,214.185 C310.5835,213.011 311.5355,212.058 312.7105,212.058 L331.7495,212.058 C332.9245,212.058 333.8765,213.011 333.8765,214.185 L333.8765,287.267 C333.8765,288.442 332.9245,289.394 331.7495,289.394" id="Fill-73" fill="#FFFFFF"></path>
            <path d="M312.7105,212.6606 C311.8685,212.6606 311.1855,213.3446 311.1855,214.1856 L311.1855,287.2666 C311.1855,288.1076 311.8685,288.7926 312.7105,288.7926 L331.7495,288.7926 C332.5915,288.7926 333.2745,288.1076 333.2745,287.2666 L333.2745,214.1856 C333.2745,213.3446 332.5915,212.6606 331.7495,212.6606 L312.7105,212.6606 Z M331.7495,289.9966 L312.7105,289.9966 C311.2055,289.9966 309.9815,288.7716 309.9815,287.2666 L309.9815,214.1856 C309.9815,212.6816 311.2055,211.4566 312.7105,211.4566 L331.7495,211.4566 C333.2545,211.4566 334.4795,212.6816 334.4795,214.1856 L334.4795,287.2666 C334.4795,288.7716 333.2545,289.9966 331.7495,289.9966 L331.7495,289.9966 Z" id="Fill-74" fill="#1C3355"></path>
            <path d="M328.9644,275.3422 L315.4954,275.3422 C314.7514,275.3422 314.1484,274.7382 314.1484,273.9942 L314.1484,268.8282 C314.1484,268.0832 314.7514,267.4802 315.4954,267.4802 L328.9644,267.4802 C329.7084,267.4802 330.3124,268.0832 330.3124,268.8282 L330.3124,273.9942 C330.3124,274.7382 329.7084,275.3422 328.9644,275.3422" id="Fill-75" fill="#92C5ED"></path>
            <polygon id="Fill-76" fill="#52A1CA" points="314.514 224.031 330.313 224.031 330.313 222.827 314.514 222.827"></polygon>
            <polygon id="Fill-77" fill="#52A1CA" points="314.514 229.013 320.929 229.013 320.929 227.81 314.514 227.81"></polygon>
            <polygon id="Fill-78" fill="#52A1CA" points="323.898 229.013 330.313 229.013 330.313 227.81 323.898 227.81"></polygon>
            <polygon id="Fill-79" fill="#52A1CA" points="314.514 233.997 320.929 233.997 320.929 232.793 314.514 232.793"></polygon>
            <path d="M355.1841,289.394 L336.1451,289.394 C334.9701,289.394 334.0181,288.442 334.0181,287.267 L334.0181,214.185 C334.0181,213.011 334.9701,212.058 336.1451,212.058 L355.1841,212.058 C356.3591,212.058 357.3121,213.011 357.3121,214.185 L357.3121,287.267 C357.3121,288.442 356.3591,289.394 355.1841,289.394" id="Fill-80" fill="#FFFFFF"></path>
            <path d="M336.1451,212.6606 C335.3041,212.6606 334.6201,213.3446 334.6201,214.1856 L334.6201,287.2666 C334.6201,288.1076 335.3041,288.7926 336.1451,288.7926 L355.1851,288.7926 C356.0261,288.7926 356.7101,288.1076 356.7101,287.2666 L356.7101,214.1856 C356.7101,213.3446 356.0261,212.6606 355.1851,212.6606 L336.1451,212.6606 Z M355.1851,289.9966 L336.1451,289.9966 C334.6401,289.9966 333.4161,288.7716 333.4161,287.2666 L333.4161,214.1856 C333.4161,212.6816 334.6401,211.4566 336.1451,211.4566 L355.1851,211.4566 C356.6901,211.4566 357.9141,212.6816 357.9141,214.1856 L357.9141,287.2666 C357.9141,288.7716 356.6901,289.9966 355.1851,289.9966 L355.1851,289.9966 Z" id="Fill-81" fill="#1C3355"></path>
            <path d="M352.399,275.3422 L338.931,275.3422 C338.186,275.3422 337.583,274.7382 337.583,273.9942 L337.583,268.8282 C337.583,268.0832 338.186,267.4802 338.931,267.4802 L352.399,267.4802 C353.144,267.4802 353.748,268.0832 353.748,268.8282 L353.748,273.9942 C353.748,274.7382 353.144,275.3422 352.399,275.3422" id="Fill-82" fill="#92C5ED"></path>
            <polygon id="Fill-83" fill="#52A1CA" points="337.949 224.031 353.748 224.031 353.748 222.827 337.949 222.827"></polygon>
            <polygon id="Fill-84" fill="#52A1CA" points="337.949 229.013 344.364 229.013 344.364 227.81 337.949 227.81"></polygon>
            <polygon id="Fill-85" fill="#52A1CA" points="347.333 229.013 353.748 229.013 353.748 227.81 347.333 227.81"></polygon>
            <polygon id="Fill-86" fill="#52A1CA" points="337.949 233.997 344.364 233.997 344.364 232.793 337.949 232.793"></polygon>
            <path d="M378.6226,289.394 L359.5836,289.394 C358.4086,289.394 357.4556,288.442 357.4556,287.267 L357.4556,214.185 C357.4556,213.011 358.4086,212.058 359.5836,212.058 L378.6226,212.058 C379.7976,212.058 380.7496,213.011 380.7496,214.185 L380.7496,287.267 C380.7496,288.442 379.7976,289.394 378.6226,289.394" id="Fill-87" fill="#FFFFFF"></path>
            <path d="M359.5835,212.6606 C358.7415,212.6606 358.0585,213.3446 358.0585,214.1856 L358.0585,287.2666 C358.0585,288.1076 358.7415,288.7926 359.5835,288.7926 L378.6225,288.7926 C379.4635,288.7926 380.1475,288.1076 380.1475,287.2666 L380.1475,214.1856 C380.1475,213.3446 379.4635,212.6606 378.6225,212.6606 L359.5835,212.6606 Z M378.6225,289.9966 L359.5835,289.9966 C358.0785,289.9966 356.8545,288.7716 356.8545,287.2666 L356.8545,214.1856 C356.8545,212.6816 358.0785,211.4566 359.5835,211.4566 L378.6225,211.4566 C380.1275,211.4566 381.3515,212.6816 381.3515,214.1856 L381.3515,287.2666 C381.3515,288.7716 380.1275,289.9966 378.6225,289.9966 L378.6225,289.9966 Z" id="Fill-88" fill="#1C3355"></path>
            <path d="M375.8365,275.3422 L362.3685,275.3422 C361.6245,275.3422 361.0205,274.7382 361.0205,273.9942 L361.0205,268.8282 C361.0205,268.0832 361.6245,267.4802 362.3685,267.4802 L375.8365,267.4802 C376.5815,267.4802 377.1855,268.0832 377.1855,268.8282 L377.1855,273.9942 C377.1855,274.7382 376.5815,275.3422 375.8365,275.3422" id="Fill-89" fill="#92C5ED"></path>
            <polygon id="Fill-90" fill="#52A1CA" points="361.387 224.031 377.185 224.031 377.185 222.827 361.387 222.827"></polygon>
            <polygon id="Fill-91" fill="#52A1CA" points="361.387 229.013 367.802 229.013 367.802 227.81 361.387 227.81"></polygon>
            <polygon id="Fill-92" fill="#52A1CA" points="370.77 229.013 377.185 229.013 377.185 227.81 370.77 227.81"></polygon>
            <polygon id="Fill-93" fill="#52A1CA" points="361.387 233.997 367.802 233.997 367.802 232.793 361.387 232.793"></polygon>
            <path d="M402.0796,289.394 L383.0406,289.394 C381.8656,289.394 380.9136,288.442 380.9136,287.267 L380.9136,214.185 C380.9136,213.011 381.8656,212.058 383.0406,212.058 L402.0796,212.058 C403.2546,212.058 404.2066,213.011 404.2066,214.185 L404.2066,287.267 C404.2066,288.442 403.2546,289.394 402.0796,289.394" id="Fill-94" fill="#FFFFFF"></path>
            <path d="M383.0406,212.6606 C382.1986,212.6606 381.5156,213.3446 381.5156,214.1856 L381.5156,287.2666 C381.5156,288.1076 382.1986,288.7926 383.0406,288.7926 L402.0796,288.7926 C402.9216,288.7926 403.6046,288.1076 403.6046,287.2666 L403.6046,214.1856 C403.6046,213.3446 402.9216,212.6606 402.0796,212.6606 L383.0406,212.6606 Z M402.0796,289.9966 L383.0406,289.9966 C381.5356,289.9966 380.3116,288.7716 380.3116,287.2666 L380.3116,214.1856 C380.3116,212.6816 381.5356,211.4566 383.0406,211.4566 L402.0796,211.4566 C403.5846,211.4566 404.8096,212.6816 404.8096,214.1856 L404.8096,287.2666 C404.8096,288.7716 403.5846,289.9966 402.0796,289.9966 L402.0796,289.9966 Z" id="Fill-95" fill="#1C3355"></path>
            <path d="M399.2945,275.3422 L385.8255,275.3422 C385.0815,275.3422 384.4785,274.7382 384.4785,273.9942 L384.4785,268.8282 C384.4785,268.0832 385.0815,267.4802 385.8255,267.4802 L399.2945,267.4802 C400.0385,267.4802 400.6425,268.0832 400.6425,268.8282 L400.6425,273.9942 C400.6425,274.7382 400.0385,275.3422 399.2945,275.3422" id="Fill-96" fill="#92C5ED"></path>
            <polygon id="Fill-97" fill="#52A1CA" points="384.844 224.031 400.643 224.031 400.643 222.827 384.844 222.827"></polygon>
            <polygon id="Fill-98" fill="#52A1CA" points="384.844 229.013 391.259 229.013 391.259 227.81 384.844 227.81"></polygon>
            <polygon id="Fill-99" fill="#52A1CA" points="394.228 229.013 400.643 229.013 400.643 227.81 394.228 227.81"></polygon>
            <polygon id="Fill-100" fill="#52A1CA" points="384.844 233.997 391.259 233.997 391.259 232.793 384.844 232.793"></polygon>
            <path d="M237.94,197.6996 L218.901,197.6996 C217.726,197.6996 216.774,196.7466 216.774,195.5716 L216.774,122.4906 C216.774,121.3156 217.726,120.3636 218.901,120.3636 L237.94,120.3636 C239.115,120.3636 240.067,121.3156 240.067,122.4906 L240.067,195.5716 C240.067,196.7466 239.115,197.6996 237.94,197.6996" id="Fill-101" fill="#FFFFFF"></path>
            <path d="M218.9009,120.9653 C218.0589,120.9653 217.3759,121.6503 217.3759,122.4903 L217.3759,195.5713 C217.3759,196.4133 218.0589,197.0973 218.9009,197.0973 L237.9399,197.0973 C238.7809,197.0973 239.4649,196.4133 239.4649,195.5713 L239.4649,122.4903 C239.4649,121.6503 238.7809,120.9653 237.9399,120.9653 L218.9009,120.9653 Z M237.9399,198.3013 L218.9009,198.3013 C217.3959,198.3013 216.1719,197.0763 216.1719,195.5713 L216.1719,122.4903 C216.1719,120.9863 217.3959,119.7613 218.9009,119.7613 L237.9399,119.7613 C239.4449,119.7613 240.6689,120.9863 240.6689,122.4903 L240.6689,195.5713 C240.6689,197.0763 239.4449,198.3013 237.9399,198.3013 L237.9399,198.3013 Z" id="Fill-102" fill="#1C3355"></path>
            <path d="M235.1548,183.6479 L221.6858,183.6479 C220.9418,183.6479 220.3388,183.0439 220.3388,182.2989 L220.3388,177.1329 C220.3388,176.3889 220.9418,175.7859 221.6858,175.7859 L235.1548,175.7859 C235.8988,175.7859 236.5028,176.3889 236.5028,177.1329 L236.5028,182.2989 C236.5028,183.0439 235.8988,183.6479 235.1548,183.6479" id="Fill-103" fill="#92C5ED"></path>
            <polygon id="Fill-104" fill="#52A1CA" points="220.704 132.335 236.502 132.335 236.502 131.131 220.704 131.131"></polygon>
            <polygon id="Fill-105" fill="#52A1CA" points="220.705 137.319 227.12 137.319 227.12 136.115 220.705 136.115"></polygon>
            <polygon id="Fill-106" fill="#52A1CA" points="230.088 137.319 236.502 137.319 236.502 136.115 230.088 136.115"></polygon>
            <polygon id="Fill-107" fill="#52A1CA" points="220.705 142.303 227.12 142.303 227.12 141.099 220.705 141.099"></polygon>
            <path d="M261.3784,197.6996 L242.3384,197.6996 C241.1634,197.6996 240.2114,196.7466 240.2114,195.5716 L240.2114,122.4906 C240.2114,121.3156 241.1634,120.3636 242.3384,120.3636 L261.3784,120.3636 C262.5534,120.3636 263.5054,121.3156 263.5054,122.4906 L263.5054,195.5716 C263.5054,196.7466 262.5534,197.6996 261.3784,197.6996" id="Fill-108" fill="#FFFFFF"></path>
            <path d="M242.3384,120.9653 C241.4974,120.9653 240.8134,121.6503 240.8134,122.4903 L240.8134,195.5713 C240.8134,196.4133 241.4974,197.0973 242.3384,197.0973 L261.3784,197.0973 C262.2194,197.0973 262.9034,196.4133 262.9034,195.5713 L262.9034,122.4903 C262.9034,121.6503 262.2194,120.9653 261.3784,120.9653 L242.3384,120.9653 Z M261.3784,198.3013 L242.3384,198.3013 C240.8334,198.3013 239.6094,197.0763 239.6094,195.5713 L239.6094,122.4903 C239.6094,120.9863 240.8334,119.7613 242.3384,119.7613 L261.3784,119.7613 C262.8834,119.7613 264.1074,120.9863 264.1074,122.4903 L264.1074,195.5713 C264.1074,197.0763 262.8834,198.3013 261.3784,198.3013 L261.3784,198.3013 Z" id="Fill-109" fill="#1C3355"></path>
            <path d="M258.5923,183.6479 L245.1243,183.6479 C244.3793,183.6479 243.7763,183.0439 243.7763,182.2989 L243.7763,177.1329 C243.7763,176.3889 244.3793,175.7859 245.1243,175.7859 L258.5923,175.7859 C259.3373,175.7859 259.9413,176.3889 259.9413,177.1329 L259.9413,182.2989 C259.9413,183.0439 259.3373,183.6479 258.5923,183.6479" id="Fill-110" fill="#92C5ED"></path>
            <polygon id="Fill-111" fill="#52A1CA" points="244.143 132.335 259.941 132.335 259.941 131.131 244.143 131.131"></polygon>
            <polygon id="Fill-112" fill="#52A1CA" points="244.143 137.319 250.557 137.319 250.557 136.115 244.143 136.115"></polygon>
            <polygon id="Fill-113" fill="#52A1CA" points="253.526 137.319 259.941 137.319 259.941 136.115 253.526 136.115"></polygon>
            <polygon id="Fill-114" fill="#52A1CA" points="244.143 142.303 250.557 142.303 250.557 141.099 244.143 141.099"></polygon>
            <path d="M284.8355,197.6996 L265.7955,197.6996 C264.6205,197.6996 263.6685,196.7466 263.6685,195.5716 L263.6685,122.4906 C263.6685,121.3156 264.6205,120.3636 265.7955,120.3636 L284.8355,120.3636 C286.0105,120.3636 286.9625,121.3156 286.9625,122.4906 L286.9625,195.5716 C286.9625,196.7466 286.0105,197.6996 284.8355,197.6996" id="Fill-115" fill="#FFFFFF"></path>
            <path d="M265.7954,120.9653 C264.9544,120.9653 264.2704,121.6503 264.2704,122.4903 L264.2704,195.5713 C264.2704,196.4133 264.9544,197.0973 265.7954,197.0973 L284.8354,197.0973 C285.6764,197.0973 286.3604,196.4133 286.3604,195.5713 L286.3604,122.4903 C286.3604,121.6503 285.6764,120.9653 284.8354,120.9653 L265.7954,120.9653 Z M284.8354,198.3013 L265.7954,198.3013 C264.2904,198.3013 263.0664,197.0763 263.0664,195.5713 L263.0664,122.4903 C263.0664,120.9863 264.2904,119.7613 265.7954,119.7613 L284.8354,119.7613 C286.3404,119.7613 287.5644,120.9863 287.5644,122.4903 L287.5644,195.5713 C287.5644,197.0763 286.3404,198.3013 284.8354,198.3013 L284.8354,198.3013 Z" id="Fill-116" fill="#1C3355"></path>
            <path d="M282.0493,183.6479 L268.5813,183.6479 C267.8363,183.6479 267.2333,183.0439 267.2333,182.2989 L267.2333,177.1329 C267.2333,176.3889 267.8363,175.7859 268.5813,175.7859 L282.0493,175.7859 C282.7943,175.7859 283.3983,176.3889 283.3983,177.1329 L283.3983,182.2989 C283.3983,183.0439 282.7943,183.6479 282.0493,183.6479" id="Fill-117" fill="#92C5ED"></path>
            <polygon id="Fill-118" fill="#52A1CA" points="267.599 132.335 283.398 132.335 283.398 131.131 267.599 131.131"></polygon>
            <polygon id="Fill-119" fill="#52A1CA" points="267.599 137.319 274.014 137.319 274.014 136.115 267.599 136.115"></polygon>
            <polygon id="Fill-120" fill="#52A1CA" points="276.983 137.319 283.398 137.319 283.398 136.115 276.983 136.115"></polygon>
            <polygon id="Fill-121" fill="#52A1CA" points="267.599 142.303 274.014 142.303 274.014 141.099 267.599 141.099"></polygon>
            <path d="M308.2925,197.6996 L289.2535,197.6996 C288.0785,197.6996 287.1255,196.7466 287.1255,195.5716 L287.1255,122.4906 C287.1255,121.3156 288.0785,120.3636 289.2535,120.3636 L308.2925,120.3636 C309.4675,120.3636 310.4195,121.3156 310.4195,122.4906 L310.4195,195.5716 C310.4195,196.7466 309.4675,197.6996 308.2925,197.6996" id="Fill-122" fill="#FFFFFF"></path>
            <path d="M289.2534,120.9653 C288.4114,120.9653 287.7284,121.6503 287.7284,122.4903 L287.7284,195.5713 C287.7284,196.4133 288.4114,197.0973 289.2534,197.0973 L308.2924,197.0973 C309.1334,197.0973 309.8174,196.4133 309.8174,195.5713 L309.8174,122.4903 C309.8174,121.6503 309.1334,120.9653 308.2924,120.9653 L289.2534,120.9653 Z M308.2924,198.3013 L289.2534,198.3013 C287.7484,198.3013 286.5244,197.0763 286.5244,195.5713 L286.5244,122.4903 C286.5244,120.9863 287.7484,119.7613 289.2534,119.7613 L308.2924,119.7613 C309.7974,119.7613 311.0224,120.9863 311.0224,122.4903 L311.0224,195.5713 C311.0224,197.0763 309.7974,198.3013 308.2924,198.3013 L308.2924,198.3013 Z" id="Fill-123" fill="#1C3355"></path>
            <path d="M305.5074,183.6479 L292.0384,183.6479 C291.2944,183.6479 290.6904,183.0439 290.6904,182.2989 L290.6904,177.1329 C290.6904,176.3889 291.2944,175.7859 292.0384,175.7859 L305.5074,175.7859 C306.2514,175.7859 306.8554,176.3889 306.8554,177.1329 L306.8554,182.2989 C306.8554,183.0439 306.2514,183.6479 305.5074,183.6479" id="Fill-124" fill="#92C5ED"></path>
            <polygon id="Fill-125" fill="#52A1CA" points="291.057 132.335 306.855 132.335 306.855 131.131 291.057 131.131"></polygon>
            <polygon id="Fill-126" fill="#52A1CA" points="291.057 137.319 297.472 137.319 297.472 136.115 291.057 136.115"></polygon>
            <polygon id="Fill-127" fill="#52A1CA" points="300.44 137.319 306.855 137.319 306.855 136.115 300.44 136.115"></polygon>
            <polygon id="Fill-128" fill="#52A1CA" points="291.057 142.303 297.472 142.303 297.472 141.099 291.057 141.099"></polygon>
            <path d="M331.7495,197.6996 L312.7105,197.6996 C311.5355,197.6996 310.5835,196.7466 310.5835,195.5716 L310.5835,122.4906 C310.5835,121.3156 311.5355,120.3636 312.7105,120.3636 L331.7495,120.3636 C332.9245,120.3636 333.8765,121.3156 333.8765,122.4906 L333.8765,195.5716 C333.8765,196.7466 332.9245,197.6996 331.7495,197.6996" id="Fill-129" fill="#FFFFFF"></path>
            <path d="M312.7105,120.9653 C311.8685,120.9653 311.1855,121.6503 311.1855,122.4903 L311.1855,195.5713 C311.1855,196.4133 311.8685,197.0973 312.7105,197.0973 L331.7495,197.0973 C332.5915,197.0973 333.2745,196.4133 333.2745,195.5713 L333.2745,122.4903 C333.2745,121.6503 332.5915,120.9653 331.7495,120.9653 L312.7105,120.9653 Z M331.7495,198.3013 L312.7105,198.3013 C311.2055,198.3013 309.9815,197.0763 309.9815,195.5713 L309.9815,122.4903 C309.9815,120.9863 311.2055,119.7613 312.7105,119.7613 L331.7495,119.7613 C333.2545,119.7613 334.4795,120.9863 334.4795,122.4903 L334.4795,195.5713 C334.4795,197.0763 333.2545,198.3013 331.7495,198.3013 L331.7495,198.3013 Z" id="Fill-130" fill="#1C3355"></path>
            <path d="M328.9644,183.6479 L315.4954,183.6479 C314.7514,183.6479 314.1484,183.0439 314.1484,182.2989 L314.1484,177.1329 C314.1484,176.3889 314.7514,175.7859 315.4954,175.7859 L328.9644,175.7859 C329.7084,175.7859 330.3124,176.3889 330.3124,177.1329 L330.3124,182.2989 C330.3124,183.0439 329.7084,183.6479 328.9644,183.6479" id="Fill-131" fill="#92C5ED"></path>
            <polygon id="Fill-132" fill="#52A1CA" points="314.514 132.335 330.313 132.335 330.313 131.131 314.514 131.131"></polygon>
            <polygon id="Fill-133" fill="#52A1CA" points="314.514 137.319 320.929 137.319 320.929 136.115 314.514 136.115"></polygon>
            <polygon id="Fill-134" fill="#52A1CA" points="323.898 137.319 330.313 137.319 330.313 136.115 323.898 136.115"></polygon>
            <polygon id="Fill-135" fill="#52A1CA" points="314.514 142.303 320.929 142.303 320.929 141.099 314.514 141.099"></polygon>
            <path d="M355.1841,197.6996 L336.1451,197.6996 C334.9701,197.6996 334.0181,196.7466 334.0181,195.5716 L334.0181,122.4906 C334.0181,121.3156 334.9701,120.3636 336.1451,120.3636 L355.1841,120.3636 C356.3591,120.3636 357.3121,121.3156 357.3121,122.4906 L357.3121,195.5716 C357.3121,196.7466 356.3591,197.6996 355.1841,197.6996" id="Fill-136" fill="#FFFFFF"></path>
            <path d="M336.1451,120.9653 C335.3041,120.9653 334.6201,121.6503 334.6201,122.4903 L334.6201,195.5713 C334.6201,196.4133 335.3041,197.0973 336.1451,197.0973 L355.1851,197.0973 C356.0261,197.0973 356.7101,196.4133 356.7101,195.5713 L356.7101,122.4903 C356.7101,121.6503 356.0261,120.9653 355.1851,120.9653 L336.1451,120.9653 Z M355.1851,198.3013 L336.1451,198.3013 C334.6401,198.3013 333.4161,197.0763 333.4161,195.5713 L333.4161,122.4903 C333.4161,120.9863 334.6401,119.7613 336.1451,119.7613 L355.1851,119.7613 C356.6901,119.7613 357.9141,120.9863 357.9141,122.4903 L357.9141,195.5713 C357.9141,197.0763 356.6901,198.3013 355.1851,198.3013 L355.1851,198.3013 Z" id="Fill-137" fill="#1C3355"></path>
            <path d="M352.399,183.6479 L338.931,183.6479 C338.186,183.6479 337.583,183.0439 337.583,182.2989 L337.583,177.1329 C337.583,176.3889 338.186,175.7859 338.931,175.7859 L352.399,175.7859 C353.144,175.7859 353.748,176.3889 353.748,177.1329 L353.748,182.2989 C353.748,183.0439 353.144,183.6479 352.399,183.6479" id="Fill-138" fill="#92C5ED"></path>
            <polygon id="Fill-139" fill="#52A1CA" points="337.949 132.335 353.748 132.335 353.748 131.131 337.949 131.131"></polygon>
            <polygon id="Fill-140" fill="#52A1CA" points="337.949 137.319 344.364 137.319 344.364 136.115 337.949 136.115"></polygon>
            <polygon id="Fill-141" fill="#52A1CA" points="347.333 137.319 353.748 137.319 353.748 136.115 347.333 136.115"></polygon>
            <polygon id="Fill-142" fill="#52A1CA" points="337.949 142.303 344.364 142.303 344.364 141.099 337.949 141.099"></polygon>
            <path d="M378.6226,197.6996 L359.5836,197.6996 C358.4086,197.6996 357.4556,196.7466 357.4556,195.5716 L357.4556,122.4906 C357.4556,121.3156 358.4086,120.3636 359.5836,120.3636 L378.6226,120.3636 C379.7976,120.3636 380.7496,121.3156 380.7496,122.4906 L380.7496,195.5716 C380.7496,196.7466 379.7976,197.6996 378.6226,197.6996" id="Fill-143" fill="#FFFFFF"></path>
            <path d="M359.5835,120.9653 C358.7415,120.9653 358.0585,121.6503 358.0585,122.4903 L358.0585,195.5713 C358.0585,196.4133 358.7415,197.0973 359.5835,197.0973 L378.6225,197.0973 C379.4635,197.0973 380.1475,196.4133 380.1475,195.5713 L380.1475,122.4903 C380.1475,121.6503 379.4635,120.9653 378.6225,120.9653 L359.5835,120.9653 Z M378.6225,198.3013 L359.5835,198.3013 C358.0785,198.3013 356.8545,197.0763 356.8545,195.5713 L356.8545,122.4903 C356.8545,120.9863 358.0785,119.7613 359.5835,119.7613 L378.6225,119.7613 C380.1275,119.7613 381.3515,120.9863 381.3515,122.4903 L381.3515,195.5713 C381.3515,197.0763 380.1275,198.3013 378.6225,198.3013 L378.6225,198.3013 Z" id="Fill-144" fill="#1C3355"></path>
            <path d="M375.8365,183.6479 L362.3685,183.6479 C361.6245,183.6479 361.0205,183.0439 361.0205,182.2989 L361.0205,177.1329 C361.0205,176.3889 361.6245,175.7859 362.3685,175.7859 L375.8365,175.7859 C376.5815,175.7859 377.1855,176.3889 377.1855,177.1329 L377.1855,182.2989 C377.1855,183.0439 376.5815,183.6479 375.8365,183.6479" id="Fill-145" fill="#92C5ED"></path>
            <polygon id="Fill-146" fill="#52A1CA" points="361.387 132.335 377.185 132.335 377.185 131.131 361.387 131.131"></polygon>
            <polygon id="Fill-147" fill="#52A1CA" points="361.387 137.319 367.802 137.319 367.802 136.115 361.387 136.115"></polygon>
            <polygon id="Fill-148" fill="#52A1CA" points="370.77 137.319 377.185 137.319 377.185 136.115 370.77 136.115"></polygon>
            <polygon id="Fill-149" fill="#52A1CA" points="361.387 142.303 367.802 142.303 367.802 141.099 361.387 141.099"></polygon>
            <path d="M402.0796,197.6996 L383.0406,197.6996 C381.8656,197.6996 380.9136,196.7466 380.9136,195.5716 L380.9136,122.4906 C380.9136,121.3156 381.8656,120.3636 383.0406,120.3636 L402.0796,120.3636 C403.2546,120.3636 404.2066,121.3156 404.2066,122.4906 L404.2066,195.5716 C404.2066,196.7466 403.2546,197.6996 402.0796,197.6996" id="Fill-150" fill="#FFFFFF"></path>
            <path d="M383.0406,120.9653 C382.1986,120.9653 381.5156,121.6503 381.5156,122.4903 L381.5156,195.5713 C381.5156,196.4133 382.1986,197.0973 383.0406,197.0973 L402.0796,197.0973 C402.9216,197.0973 403.6046,196.4133 403.6046,195.5713 L403.6046,122.4903 C403.6046,121.6503 402.9216,120.9653 402.0796,120.9653 L383.0406,120.9653 Z M402.0796,198.3013 L383.0406,198.3013 C381.5356,198.3013 380.3116,197.0763 380.3116,195.5713 L380.3116,122.4903 C380.3116,120.9863 381.5356,119.7613 383.0406,119.7613 L402.0796,119.7613 C403.5846,119.7613 404.8096,120.9863 404.8096,122.4903 L404.8096,195.5713 C404.8096,197.0763 403.5846,198.3013 402.0796,198.3013 L402.0796,198.3013 Z" id="Fill-151" fill="#1C3355"></path>
            <path d="M399.2945,183.6479 L385.8255,183.6479 C385.0815,183.6479 384.4785,183.0439 384.4785,182.2989 L384.4785,177.1329 C384.4785,176.3889 385.0815,175.7859 385.8255,175.7859 L399.2945,175.7859 C400.0385,175.7859 400.6425,176.3889 400.6425,177.1329 L400.6425,182.2989 C400.6425,183.0439 400.0385,183.6479 399.2945,183.6479" id="Fill-152" fill="#92C5ED"></path>
            <polygon id="Fill-153" fill="#52A1CA" points="384.844 132.335 400.643 132.335 400.643 131.131 384.844 131.131"></polygon>
            <polygon id="Fill-154" fill="#52A1CA" points="384.844 137.319 391.259 137.319 391.259 136.115 384.844 136.115"></polygon>
            <polygon id="Fill-155" fill="#52A1CA" points="394.228 137.319 400.643 137.319 400.643 136.115 394.228 136.115"></polygon>
            <polygon id="Fill-156" fill="#52A1CA" points="384.844 142.303 391.259 142.303 391.259 141.099 384.844 141.099"></polygon>
            <path d="M237.94,106.4408 L218.901,106.4408 C217.726,106.4408 216.774,105.4888 216.774,104.3138 L216.774,31.2318 C216.774,30.0578 217.726,29.1048 218.901,29.1048 L237.94,29.1048 C239.115,29.1048 240.067,30.0578 240.067,31.2318 L240.067,104.3138 C240.067,105.4888 239.115,106.4408 237.94,106.4408" id="Fill-157" fill="#FFFFFF"></path>
            <path d="M218.9009,29.7069 C218.0589,29.7069 217.3759,30.3909 217.3759,31.2319 L217.3759,104.3139 C217.3759,105.1549 218.0589,105.8389 218.9009,105.8389 L237.9399,105.8389 C238.7809,105.8389 239.4649,105.1549 239.4649,104.3139 L239.4649,31.2319 C239.4649,30.3909 238.7809,29.7069 237.9399,29.7069 L218.9009,29.7069 Z M237.9399,107.0419 L218.9009,107.0419 C217.3959,107.0419 216.1719,105.8179 216.1719,104.3139 L216.1719,31.2319 C216.1719,29.7279 217.3959,28.5029 218.9009,28.5029 L237.9399,28.5029 C239.4449,28.5029 240.6689,29.7279 240.6689,31.2319 L240.6689,104.3139 C240.6689,105.8179 239.4449,107.0419 237.9399,107.0419 L237.9399,107.0419 Z" id="Fill-158" fill="#1C3355"></path>
            <path d="M235.1548,92.3896 L221.6858,92.3896 C220.9418,92.3896 220.3388,91.7856 220.3388,91.0406 L220.3388,85.8746 C220.3388,85.1306 220.9418,84.5266 221.6858,84.5266 L235.1548,84.5266 C235.8988,84.5266 236.5028,85.1306 236.5028,85.8746 L236.5028,91.0406 C236.5028,91.7856 235.8988,92.3896 235.1548,92.3896" id="Fill-159" fill="#92C5ED"></path>
            <polygon id="Fill-160" fill="#52A1CA" points="220.704 41.077 236.502 41.077 236.502 39.873 220.704 39.873"></polygon>
            <polygon id="Fill-161" fill="#52A1CA" points="220.705 46.06 227.12 46.06 227.12 44.856 220.705 44.856"></polygon>
            <polygon id="Fill-162" fill="#52A1CA" points="230.088 46.06 236.502 46.06 236.502 44.856 230.088 44.856"></polygon>
            <polygon id="Fill-163" fill="#52A1CA" points="220.705 51.044 227.12 51.044 227.12 49.84 220.705 49.84"></polygon>
            <path d="M261.3784,106.4408 L242.3384,106.4408 C241.1634,106.4408 240.2114,105.4888 240.2114,104.3138 L240.2114,31.2318 C240.2114,30.0578 241.1634,29.1048 242.3384,29.1048 L261.3784,29.1048 C262.5534,29.1048 263.5054,30.0578 263.5054,31.2318 L263.5054,104.3138 C263.5054,105.4888 262.5534,106.4408 261.3784,106.4408" id="Fill-164" fill="#FFFFFF"></path>
            <path d="M242.3384,29.7069 C241.4974,29.7069 240.8134,30.3909 240.8134,31.2319 L240.8134,104.3139 C240.8134,105.1549 241.4974,105.8389 242.3384,105.8389 L261.3784,105.8389 C262.2194,105.8389 262.9034,105.1549 262.9034,104.3139 L262.9034,31.2319 C262.9034,30.3909 262.2194,29.7069 261.3784,29.7069 L242.3384,29.7069 Z M261.3784,107.0419 L242.3384,107.0419 C240.8334,107.0419 239.6094,105.8179 239.6094,104.3139 L239.6094,31.2319 C239.6094,29.7279 240.8334,28.5029 242.3384,28.5029 L261.3784,28.5029 C262.8834,28.5029 264.1074,29.7279 264.1074,31.2319 L264.1074,104.3139 C264.1074,105.8179 262.8834,107.0419 261.3784,107.0419 L261.3784,107.0419 Z" id="Fill-165" fill="#1C3355"></path>
            <path d="M258.5923,92.3896 L245.1243,92.3896 C244.3793,92.3896 243.7763,91.7856 243.7763,91.0406 L243.7763,85.8746 C243.7763,85.1306 244.3793,84.5266 245.1243,84.5266 L258.5923,84.5266 C259.3373,84.5266 259.9413,85.1306 259.9413,85.8746 L259.9413,91.0406 C259.9413,91.7856 259.3373,92.3896 258.5923,92.3896" id="Fill-166" fill="#92C5ED"></path>
            <polygon id="Fill-167" fill="#52A1CA" points="244.143 41.077 259.941 41.077 259.941 39.873 244.143 39.873"></polygon>
            <polygon id="Fill-168" fill="#52A1CA" points="244.143 46.06 250.557 46.06 250.557 44.856 244.143 44.856"></polygon>
            <polygon id="Fill-169" fill="#52A1CA" points="253.526 46.06 259.941 46.06 259.941 44.856 253.526 44.856"></polygon>
            <polygon id="Fill-170" fill="#52A1CA" points="244.143 51.044 250.557 51.044 250.557 49.84 244.143 49.84"></polygon>
            <path d="M284.8355,106.4408 L265.7955,106.4408 C264.6205,106.4408 263.6685,105.4888 263.6685,104.3138 L263.6685,31.2318 C263.6685,30.0578 264.6205,29.1048 265.7955,29.1048 L284.8355,29.1048 C286.0105,29.1048 286.9625,30.0578 286.9625,31.2318 L286.9625,104.3138 C286.9625,105.4888 286.0105,106.4408 284.8355,106.4408" id="Fill-171" fill="#FFFFFF"></path>
            <path d="M265.7954,29.7069 C264.9544,29.7069 264.2704,30.3909 264.2704,31.2319 L264.2704,104.3139 C264.2704,105.1549 264.9544,105.8389 265.7954,105.8389 L284.8354,105.8389 C285.6764,105.8389 286.3604,105.1549 286.3604,104.3139 L286.3604,31.2319 C286.3604,30.3909 285.6764,29.7069 284.8354,29.7069 L265.7954,29.7069 Z M284.8354,107.0419 L265.7954,107.0419 C264.2904,107.0419 263.0664,105.8179 263.0664,104.3139 L263.0664,31.2319 C263.0664,29.7279 264.2904,28.5029 265.7954,28.5029 L284.8354,28.5029 C286.3404,28.5029 287.5644,29.7279 287.5644,31.2319 L287.5644,104.3139 C287.5644,105.8179 286.3404,107.0419 284.8354,107.0419 L284.8354,107.0419 Z" id="Fill-172" fill="#1C3355"></path>
            <path d="M282.0493,92.3896 L268.5813,92.3896 C267.8363,92.3896 267.2333,91.7856 267.2333,91.0406 L267.2333,85.8746 C267.2333,85.1306 267.8363,84.5266 268.5813,84.5266 L282.0493,84.5266 C282.7943,84.5266 283.3983,85.1306 283.3983,85.8746 L283.3983,91.0406 C283.3983,91.7856 282.7943,92.3896 282.0493,92.3896" id="Fill-173" fill="#92C5ED"></path>
            <polygon id="Fill-174" fill="#52A1CA" points="267.599 41.077 283.398 41.077 283.398 39.873 267.599 39.873"></polygon>
            <polygon id="Fill-175" fill="#52A1CA" points="267.599 46.06 274.014 46.06 274.014 44.856 267.599 44.856"></polygon>
            <polygon id="Fill-176" fill="#52A1CA" points="276.983 46.06 283.398 46.06 283.398 44.856 276.983 44.856"></polygon>
            <polygon id="Fill-177" fill="#52A1CA" points="267.599 51.044 274.014 51.044 274.014 49.84 267.599 49.84"></polygon>
            <path d="M308.2925,106.4408 L289.2535,106.4408 C288.0785,106.4408 287.1255,105.4888 287.1255,104.3138 L287.1255,31.2318 C287.1255,30.0578 288.0785,29.1048 289.2535,29.1048 L308.2925,29.1048 C309.4675,29.1048 310.4195,30.0578 310.4195,31.2318 L310.4195,104.3138 C310.4195,105.4888 309.4675,106.4408 308.2925,106.4408" id="Fill-178" fill="#FFFFFF"></path>
            <path d="M289.2534,29.7069 C288.4114,29.7069 287.7284,30.3909 287.7284,31.2319 L287.7284,104.3139 C287.7284,105.1549 288.4114,105.8389 289.2534,105.8389 L308.2924,105.8389 C309.1334,105.8389 309.8174,105.1549 309.8174,104.3139 L309.8174,31.2319 C309.8174,30.3909 309.1334,29.7069 308.2924,29.7069 L289.2534,29.7069 Z M308.2924,107.0419 L289.2534,107.0419 C287.7484,107.0419 286.5244,105.8179 286.5244,104.3139 L286.5244,31.2319 C286.5244,29.7279 287.7484,28.5029 289.2534,28.5029 L308.2924,28.5029 C309.7974,28.5029 311.0224,29.7279 311.0224,31.2319 L311.0224,104.3139 C311.0224,105.8179 309.7974,107.0419 308.2924,107.0419 L308.2924,107.0419 Z" id="Fill-179" fill="#1C3355"></path>
            <path d="M305.5074,92.3896 L292.0384,92.3896 C291.2944,92.3896 290.6904,91.7856 290.6904,91.0406 L290.6904,85.8746 C290.6904,85.1306 291.2944,84.5266 292.0384,84.5266 L305.5074,84.5266 C306.2514,84.5266 306.8554,85.1306 306.8554,85.8746 L306.8554,91.0406 C306.8554,91.7856 306.2514,92.3896 305.5074,92.3896" id="Fill-180" fill="#92C5ED"></path>
            <polygon id="Fill-181" fill="#52A1CA" points="291.057 41.077 306.855 41.077 306.855 39.873 291.057 39.873"></polygon>
            <polygon id="Fill-182" fill="#52A1CA" points="291.057 46.06 297.472 46.06 297.472 44.856 291.057 44.856"></polygon>
            <polygon id="Fill-183" fill="#52A1CA" points="300.44 46.06 306.855 46.06 306.855 44.856 300.44 44.856"></polygon>
            <polygon id="Fill-184" fill="#52A1CA" points="291.057 51.044 297.472 51.044 297.472 49.84 291.057 49.84"></polygon>
            <path d="M331.7495,106.4408 L312.7105,106.4408 C311.5355,106.4408 310.5835,105.4888 310.5835,104.3138 L310.5835,31.2318 C310.5835,30.0578 311.5355,29.1048 312.7105,29.1048 L331.7495,29.1048 C332.9245,29.1048 333.8765,30.0578 333.8765,31.2318 L333.8765,104.3138 C333.8765,105.4888 332.9245,106.4408 331.7495,106.4408" id="Fill-185" fill="#FFFFFF"></path>
            <path d="M312.7105,29.7069 C311.8685,29.7069 311.1855,30.3909 311.1855,31.2319 L311.1855,104.3139 C311.1855,105.1549 311.8685,105.8389 312.7105,105.8389 L331.7495,105.8389 C332.5915,105.8389 333.2745,105.1549 333.2745,104.3139 L333.2745,31.2319 C333.2745,30.3909 332.5915,29.7069 331.7495,29.7069 L312.7105,29.7069 Z M331.7495,107.0419 L312.7105,107.0419 C311.2055,107.0419 309.9815,105.8179 309.9815,104.3139 L309.9815,31.2319 C309.9815,29.7279 311.2055,28.5029 312.7105,28.5029 L331.7495,28.5029 C333.2545,28.5029 334.4795,29.7279 334.4795,31.2319 L334.4795,104.3139 C334.4795,105.8179 333.2545,107.0419 331.7495,107.0419 L331.7495,107.0419 Z" id="Fill-186" fill="#1C3355"></path>
            <path d="M328.9644,92.3896 L315.4954,92.3896 C314.7514,92.3896 314.1484,91.7856 314.1484,91.0406 L314.1484,85.8746 C314.1484,85.1306 314.7514,84.5266 315.4954,84.5266 L328.9644,84.5266 C329.7084,84.5266 330.3124,85.1306 330.3124,85.8746 L330.3124,91.0406 C330.3124,91.7856 329.7084,92.3896 328.9644,92.3896" id="Fill-187" fill="#92C5ED"></path>
            <polygon id="Fill-188" fill="#52A1CA" points="314.514 41.077 330.313 41.077 330.313 39.873 314.514 39.873"></polygon>
            <polygon id="Fill-189" fill="#52A1CA" points="314.514 46.06 320.929 46.06 320.929 44.856 314.514 44.856"></polygon>
            <polygon id="Fill-190" fill="#52A1CA" points="323.898 46.06 330.313 46.06 330.313 44.856 323.898 44.856"></polygon>
            <polygon id="Fill-191" fill="#52A1CA" points="314.514 51.044 320.929 51.044 320.929 49.84 314.514 49.84"></polygon>
            <path d="M355.1841,106.4408 L336.1451,106.4408 C334.9701,106.4408 334.0181,105.4888 334.0181,104.3138 L334.0181,31.2318 C334.0181,30.0578 334.9701,29.1048 336.1451,29.1048 L355.1841,29.1048 C356.3591,29.1048 357.3121,30.0578 357.3121,31.2318 L357.3121,104.3138 C357.3121,105.4888 356.3591,106.4408 355.1841,106.4408" id="Fill-192" fill="#FFFFFF"></path>
            <path d="M336.1451,29.7069 C335.3041,29.7069 334.6201,30.3909 334.6201,31.2319 L334.6201,104.3139 C334.6201,105.1549 335.3041,105.8389 336.1451,105.8389 L355.1851,105.8389 C356.0261,105.8389 356.7101,105.1549 356.7101,104.3139 L356.7101,31.2319 C356.7101,30.3909 356.0261,29.7069 355.1851,29.7069 L336.1451,29.7069 Z M355.1851,107.0419 L336.1451,107.0419 C334.6401,107.0419 333.4161,105.8179 333.4161,104.3139 L333.4161,31.2319 C333.4161,29.7279 334.6401,28.5029 336.1451,28.5029 L355.1851,28.5029 C356.6901,28.5029 357.9141,29.7279 357.9141,31.2319 L357.9141,104.3139 C357.9141,105.8179 356.6901,107.0419 355.1851,107.0419 L355.1851,107.0419 Z" id="Fill-193" fill="#1C3355"></path>
            <path d="M352.399,92.3896 L338.931,92.3896 C338.186,92.3896 337.583,91.7856 337.583,91.0406 L337.583,85.8746 C337.583,85.1306 338.186,84.5266 338.931,84.5266 L352.399,84.5266 C353.144,84.5266 353.748,85.1306 353.748,85.8746 L353.748,91.0406 C353.748,91.7856 353.144,92.3896 352.399,92.3896" id="Fill-194" fill="#92C5ED"></path>
            <polygon id="Fill-195" fill="#52A1CA" points="337.949 41.077 353.748 41.077 353.748 39.873 337.949 39.873"></polygon>
            <polygon id="Fill-196" fill="#52A1CA" points="337.949 46.06 344.364 46.06 344.364 44.856 337.949 44.856"></polygon>
            <polygon id="Fill-197" fill="#52A1CA" points="347.333 46.06 353.748 46.06 353.748 44.856 347.333 44.856"></polygon>
            <polygon id="Fill-198" fill="#52A1CA" points="337.949 51.044 344.364 51.044 344.364 49.84 337.949 49.84"></polygon>
            <path d="M378.6226,106.4408 L359.5836,106.4408 C358.4086,106.4408 357.4556,105.4888 357.4556,104.3138 L357.4556,31.2318 C357.4556,30.0578 358.4086,29.1048 359.5836,29.1048 L378.6226,29.1048 C379.7976,29.1048 380.7496,30.0578 380.7496,31.2318 L380.7496,104.3138 C380.7496,105.4888 379.7976,106.4408 378.6226,106.4408" id="Fill-199" fill="#FFFFFF"></path>
            <path d="M359.5835,29.7069 C358.7415,29.7069 358.0585,30.3909 358.0585,31.2319 L358.0585,104.3139 C358.0585,105.1549 358.7415,105.8389 359.5835,105.8389 L378.6225,105.8389 C379.4635,105.8389 380.1475,105.1549 380.1475,104.3139 L380.1475,31.2319 C380.1475,30.3909 379.4635,29.7069 378.6225,29.7069 L359.5835,29.7069 Z M378.6225,107.0419 L359.5835,107.0419 C358.0785,107.0419 356.8545,105.8179 356.8545,104.3139 L356.8545,31.2319 C356.8545,29.7279 358.0785,28.5029 359.5835,28.5029 L378.6225,28.5029 C380.1275,28.5029 381.3515,29.7279 381.3515,31.2319 L381.3515,104.3139 C381.3515,105.8179 380.1275,107.0419 378.6225,107.0419 L378.6225,107.0419 Z" id="Fill-200" fill="#1C3355"></path>
            <path d="M375.8365,92.3896 L362.3685,92.3896 C361.6245,92.3896 361.0205,91.7856 361.0205,91.0406 L361.0205,85.8746 C361.0205,85.1306 361.6245,84.5266 362.3685,84.5266 L375.8365,84.5266 C376.5815,84.5266 377.1855,85.1306 377.1855,85.8746 L377.1855,91.0406 C377.1855,91.7856 376.5815,92.3896 375.8365,92.3896" id="Fill-201" fill="#92C5ED"></path>
            <polygon id="Fill-202" fill="#52A1CA" points="361.387 41.077 377.185 41.077 377.185 39.873 361.387 39.873"></polygon>
            <polygon id="Fill-203" fill="#52A1CA" points="361.387 46.06 367.802 46.06 367.802 44.856 361.387 44.856"></polygon>
            <polygon id="Fill-204" fill="#52A1CA" points="370.77 46.06 377.185 46.06 377.185 44.856 370.77 44.856"></polygon>
            <polygon id="Fill-205" fill="#52A1CA" points="361.387 51.044 367.802 51.044 367.802 49.84 361.387 49.84"></polygon>
            <path d="M402.0796,106.4408 L383.0406,106.4408 C381.8656,106.4408 380.9136,105.4888 380.9136,104.3138 L380.9136,31.2318 C380.9136,30.0578 381.8656,29.1048 383.0406,29.1048 L402.0796,29.1048 C403.2546,29.1048 404.2066,30.0578 404.2066,31.2318 L404.2066,104.3138 C404.2066,105.4888 403.2546,106.4408 402.0796,106.4408" id="Fill-206" fill="#FFFFFF"></path>
            <path d="M383.0406,29.7069 C382.1986,29.7069 381.5156,30.3909 381.5156,31.2319 L381.5156,104.3139 C381.5156,105.1549 382.1986,105.8389 383.0406,105.8389 L402.0796,105.8389 C402.9216,105.8389 403.6046,105.1549 403.6046,104.3139 L403.6046,31.2319 C403.6046,30.3909 402.9216,29.7069 402.0796,29.7069 L383.0406,29.7069 Z M402.0796,107.0419 L383.0406,107.0419 C381.5356,107.0419 380.3116,105.8179 380.3116,104.3139 L380.3116,31.2319 C380.3116,29.7279 381.5356,28.5029 383.0406,28.5029 L402.0796,28.5029 C403.5846,28.5029 404.8096,29.7279 404.8096,31.2319 L404.8096,104.3139 C404.8096,105.8179 403.5846,107.0419 402.0796,107.0419 L402.0796,107.0419 Z" id="Fill-207" fill="#1C3355"></path>
            <path d="M399.2945,92.3896 L385.8255,92.3896 C385.0815,92.3896 384.4785,91.7856 384.4785,91.0406 L384.4785,85.8746 C384.4785,85.1306 385.0815,84.5266 385.8255,84.5266 L399.2945,84.5266 C400.0385,84.5266 400.6425,85.1306 400.6425,85.8746 L400.6425,91.0406 C400.6425,91.7856 400.0385,92.3896 399.2945,92.3896" id="Fill-208" fill="#92C5ED"></path>
            <polygon id="Fill-209" fill="#52A1CA" points="384.844 41.077 400.643 41.077 400.643 39.873 384.844 39.873"></polygon>
            <polygon id="Fill-210" fill="#52A1CA" points="384.844 46.06 391.259 46.06 391.259 44.856 384.844 44.856"></polygon>
            <polygon id="Fill-211" fill="#52A1CA" points="394.228 46.06 400.643 46.06 400.643 44.856 394.228 44.856"></polygon>
            <polygon id="Fill-212" fill="#52A1CA" points="384.844 51.044 391.259 51.044 391.259 49.84 384.844 49.84"></polygon>
            <polygon id="Fill-213" fill="#438FB8" points="212.942 297.362 407.954 297.362 407.954 290.247 212.942 290.247"></polygon>
            <path d="M213.544,296.76 L407.352,296.76 L407.352,290.849 L213.544,290.849 L213.544,296.76 Z M212.34,297.964 L408.556,297.964 L408.556,289.645 L212.34,289.645 L212.34,297.964 Z" id="Fill-214" fill="#1C3355"></path>
            <polygon id="Fill-215" fill="#438FB8" points="212.942 114.27 407.954 114.27 407.954 107.155 212.942 107.155"></polygon>
            <path d="M213.544,113.668 L407.352,113.668 L407.352,107.756 L213.544,107.756 L213.544,113.668 Z M212.34,114.872 L408.556,114.872 L408.556,106.553 L212.34,106.553 L212.34,114.872 Z" id="Fill-216" fill="#1C3355"></path>
            <polygon id="Fill-217" fill="#438FB8" points="212.942 205.251 407.954 205.251 407.954 198.136 212.942 198.136"></polygon>
            <path d="M213.544,204.649 L407.352,204.649 L407.352,198.738 L213.544,198.738 L213.544,204.649 Z M212.34,205.853 L408.556,205.853 L408.556,197.534 L212.34,197.534 L212.34,205.853 Z" id="Fill-218" fill="#1C3355"></path>
            <polygon id="Fill-219" fill="#438FB8" points="212.942 23.288 407.954 23.288 407.954 16.173 212.942 16.173"></polygon>
            <path d="M213.544,22.687 L407.352,22.687 L407.352,16.775 L213.544,16.775 L213.544,22.687 Z M212.34,23.891 L408.556,23.891 L408.556,15.572 L212.34,15.572 L212.34,23.891 Z" id="Fill-220" fill="#1C3355"></path>
            <path d="M517.3403,151.3393 L515.9193,151.3393 L515.9193,150.5373 L517.3403,150.5373 C517.4303,150.5373 517.5023,150.4643 517.5023,150.3743 L517.5023,66.0733 C517.5023,65.9843 517.4303,65.9113 517.3403,65.9113 L461.7423,65.9113 C461.6533,65.9113 461.5803,65.9843 461.5803,66.0733 L461.5803,150.3743 C461.5803,150.4643 461.6533,150.5373 461.7423,150.5373 L462.2703,150.5373 L462.2703,151.3393 L461.7423,151.3393 C461.2103,151.3393 460.7783,150.9063 460.7783,150.3743 L460.7783,66.0733 C460.7783,65.5413 461.2103,65.1083 461.7423,65.1083 L517.3403,65.1083 C517.8713,65.1083 518.3053,65.5413 518.3053,66.0733 L518.3053,150.3743 C518.3053,150.9063 517.8713,151.3393 517.3403,151.3393" id="Fill-221" fill="#AED1F3"></path>
            <path d="M462.7993,67.6352 C462.7103,67.6352 462.6373,67.7072 462.6373,67.7972 L462.6373,152.0982 C462.6373,152.1882 462.7103,152.2612 462.7993,152.2612 L518.3973,152.2612 C518.4863,152.2612 518.5603,152.1882 518.5603,152.0982 L518.5603,67.7972 C518.5603,67.7072 518.4863,67.6352 518.3973,67.6352 L462.7993,67.6352 Z M518.3973,153.0632 L462.7993,153.0632 C462.2673,153.0632 461.8343,152.6302 461.8343,152.0982 L461.8343,67.7972 C461.8343,67.2652 462.2673,66.8322 462.7993,66.8322 L518.3973,66.8322 C518.9293,66.8322 519.3613,67.2652 519.3613,67.7972 L519.3613,152.0982 C519.3613,152.6302 518.9293,153.0632 518.3973,153.0632 L518.3973,153.0632 Z" id="Fill-222" fill="#AED1F3"></path>
            <path d="M516.189,154.8149 L460.591,154.8149 C460.059,154.8149 459.628,154.3809 459.628,153.8489 L459.628,69.5479 C459.628,69.0159 460.059,68.5839 460.591,68.5839 L461.325,68.5839 L461.325,69.3859 L460.591,69.3859 C460.503,69.3859 460.429,69.4589 460.429,69.5479 L460.429,153.8489 C460.429,153.9389 460.503,154.0119 460.591,154.0119 L516.189,154.0119 C516.279,154.0119 516.351,153.9389 516.351,153.8489 L516.351,69.5479 C516.351,69.4589 516.279,69.3859 516.189,69.3859 L514.914,69.3859 L514.914,68.5839 L516.189,68.5839 C516.721,68.5839 517.154,69.0159 517.154,69.5479 L517.154,153.8489 C517.154,154.3809 516.721,154.8149 516.189,154.8149" id="Fill-223" fill="#AED1F3"></path>
            <polygon id="Fill-224" fill="#AED1F3" points="465.105 87.877 490.309 87.877 490.309 87.075 465.105 87.075"></polygon>
            <polygon id="Fill-225" fill="#AED1F3" points="492.155 87.877 511.774 87.877 511.774 87.075 492.155 87.075"></polygon>
            <polygon id="Fill-226" fill="#AED1F3" points="479.326 90.92 511.843 90.92 511.843 90.118 479.326 90.118"></polygon>
            <polygon id="Fill-227" fill="#AED1F3" points="465.105 90.92 476.762 90.92 476.762 90.118 465.105 90.118"></polygon>
            <polygon id="Fill-228" fill="#AED1F3" points="465.105 93.951 511.774 93.951 511.774 93.148 465.105 93.148"></polygon>
            <polygon id="Fill-229" fill="#AED1F3" points="465.105 96.98 490.309 96.98 490.309 96.178 465.105 96.178"></polygon>
            <polygon id="Fill-230" fill="#AED1F3" points="492.155 96.98 511.774 96.98 511.774 96.178 492.155 96.178"></polygon>
            <polygon id="Fill-231" fill="#AED1F3" points="465.105 102.104 477.06 102.104 477.06 101.302 465.105 101.302"></polygon>
            <polygon id="Fill-232" fill="#AED1F3" points="478.741 102.104 511.774 102.104 511.774 101.302 478.741 101.302"></polygon>
            <polygon id="Fill-233" fill="#AED1F3" points="465.105 104.54 498.977 104.54 498.977 103.738 465.105 103.738"></polygon>
            <polygon id="Fill-234" fill="#AED1F3" points="465.105 76.133 480.351 76.133 480.351 75.331 465.105 75.331"></polygon>
            <path d="M464.7964,110.4887 C464.5984,110.4887 464.4384,110.6497 464.4384,110.8467 L464.4384,113.1357 C464.4384,113.3337 464.5984,113.4937 464.7964,113.4937 L510.2274,113.4937 C510.4244,113.4937 510.5844,113.3337 510.5844,113.1357 L510.5844,110.8467 C510.5844,110.6497 510.4244,110.4887 510.2274,110.4887 L464.7964,110.4887 Z M510.2274,114.2967 L464.7964,114.2967 C464.1554,114.2967 463.6354,113.7757 463.6354,113.1357 L463.6354,110.8467 C463.6354,110.2067 464.1554,109.6867 464.7964,109.6867 L510.2274,109.6867 C510.8664,109.6867 511.3874,110.2067 511.3874,110.8467 L511.3874,113.1357 C511.3874,113.7757 510.8664,114.2967 510.2274,114.2967 L510.2274,114.2967 Z" id="Fill-235" fill="#AED1F3"></path>
            <path d="M464.7964,118.9428 C464.5984,118.9428 464.4384,119.1038 464.4384,119.3008 L464.4384,121.5898 C464.4384,121.7878 464.5984,121.9478 464.7964,121.9478 L477.9814,121.9478 C478.1784,121.9478 478.3394,121.7878 478.3394,121.5898 L478.3394,119.3008 C478.3394,119.1038 478.1784,118.9428 477.9814,118.9428 L464.7964,118.9428 Z M477.9814,122.7508 L464.7964,122.7508 C464.1554,122.7508 463.6354,122.2308 463.6354,121.5898 L463.6354,119.3008 C463.6354,118.6608 464.1554,118.1408 464.7964,118.1408 L477.9814,118.1408 C478.6204,118.1408 479.1424,118.6608 479.1424,119.3008 L479.1424,121.5898 C479.1424,122.2308 478.6204,122.7508 477.9814,122.7508 L477.9814,122.7508 Z" id="Fill-236" fill="#AED1F3"></path>
            <path d="M464.7964,126.3271 C464.5984,126.3271 464.4384,126.4881 464.4384,126.6851 L464.4384,128.9741 C464.4384,129.1721 464.5984,129.3321 464.7964,129.3321 L477.9814,129.3321 C478.1784,129.3321 478.3394,129.1721 478.3394,128.9741 L478.3394,126.6851 C478.3394,126.4881 478.1784,126.3271 477.9814,126.3271 L464.7964,126.3271 Z M477.9814,130.1351 L464.7964,130.1351 C464.1554,130.1351 463.6354,129.6141 463.6354,128.9741 L463.6354,126.6851 C463.6354,126.0451 464.1554,125.5241 464.7964,125.5241 L477.9814,125.5241 C478.6204,125.5241 479.1424,126.0451 479.1424,126.6851 L479.1424,128.9741 C479.1424,129.6141 478.6204,130.1351 477.9814,130.1351 L477.9814,130.1351 Z" id="Fill-237" fill="#AED1F3"></path>
            <path d="M503.306,150.2794 C503.321,150.2794 503.336,150.2794 503.35,150.2794 C504.193,150.2944 504.938,150.7424 505.346,151.4514 C505.5,150.6474 506.057,149.9804 506.848,149.6894 C507.639,149.3984 508.498,149.5464 509.133,150.0604 C508.987,149.2554 509.265,148.4314 509.898,147.8744 C510.532,147.3184 511.384,147.1474 512.164,147.3954 C511.735,146.6984 511.698,145.8284 512.086,145.0804 C512.475,144.3334 513.209,143.8644 514.025,143.8154 C513.374,143.3194 513.025,142.5234 513.118,141.6854 C513.21,140.8474 513.724,140.1464 514.468,139.8054 C513.682,139.5784 513.069,138.9614 512.852,138.1474 C512.635,137.3324 512.862,136.4924 513.432,135.9054 C512.613,135.9774 511.823,135.6244 511.327,134.9424 C510.831,134.2614 510.738,133.3964 511.057,132.6434 C510.325,133.0044 509.455,132.9624 508.747,132.5064 C508.038,132.0504 507.639,131.2764 507.666,130.4594 C507.112,131.0614 506.287,131.3364 505.461,131.1664 C504.635,130.9974 503.984,130.4194 503.712,129.6474 C503.415,130.4094 502.744,130.9634 501.913,131.1044 C501.082,131.2454 500.266,130.9404 499.734,130.3194 C499.731,131.1374 499.306,131.8964 498.582,132.3274 C497.857,132.7584 496.988,132.7714 496.267,132.3824 C496.559,133.1464 496.437,134.0074 495.918,134.6714 C495.398,135.3354 494.588,135.6604 493.779,135.5594 C494.329,136.1654 494.525,137.0134 494.28,137.8194 C494.035,138.6264 493.4,139.2214 492.607,139.4194 C493.337,139.7874 493.828,140.5064 493.89,141.3464 C493.954,142.1874 493.576,142.9714 492.908,143.4434 C493.722,143.5224 494.439,144.0154 494.801,144.7764 C495.164,145.5374 495.095,146.4044 494.642,147.0864 C495.43,146.8644 496.277,147.0664 496.89,147.6464 C497.502,148.2244 497.752,149.0584 497.576,149.8564 C498.231,149.3664 499.093,149.2484 499.873,149.5664 C500.654,149.8844 501.188,150.5714 501.312,151.3804 C501.738,150.6984 502.481,150.2794 503.306,150.2794 L503.306,150.2794 Z M505.413,152.5644 C505.126,152.5644 504.871,152.3894 504.77,152.1084 C504.503,151.3654 503.854,151.0914 503.336,151.0824 C503.327,151.0824 503.317,151.0824 503.308,151.0824 C502.794,151.0824 502.154,151.3374 501.865,152.0584 C501.739,152.3724 501.417,152.5424 501.087,152.4774 C500.755,152.4084 500.529,152.1244 500.538,151.7854 C500.556,150.9954 500.05,150.5054 499.57,150.3094 C499.089,150.1144 498.385,150.1104 497.847,150.6884 C497.616,150.9364 497.254,150.9804 496.97,150.7974 C496.686,150.6144 496.578,150.2684 496.708,149.9554 C497.01,149.2254 496.715,148.5844 496.338,148.2294 C495.962,147.8734 495.306,147.6154 494.594,147.9594 C494.29,148.1064 493.937,148.0184 493.738,147.7454 C493.539,147.4714 493.563,147.1084 493.796,146.8644 C494.343,146.2924 494.299,145.5894 494.077,145.1214 C493.854,144.6534 493.329,144.1784 492.547,144.2404 C492.2,144.2664 491.914,144.0584 491.827,143.7314 C491.74,143.4034 491.893,143.0744 492.2,142.9304 C492.916,142.5954 493.128,141.9234 493.09,141.4064 C493.051,140.8904 492.74,140.2574 491.983,140.0324 C491.658,139.9364 491.458,139.6334 491.495,139.2974 C491.532,138.9604 491.794,138.7094 492.131,138.6864 C492.92,138.6314 493.362,138.0824 493.512,137.5864 C493.663,137.0904 493.601,136.3884 492.976,135.9054 C492.709,135.6984 492.629,135.3434 492.786,135.0434 C492.942,134.7424 493.277,134.6024 493.601,134.7034 C494.357,134.9374 494.966,134.5844 495.286,134.1764 C495.605,133.7694 495.801,133.0914 495.393,132.4154 C495.218,132.1254 495.273,131.7664 495.528,131.5424 C495.782,131.3194 496.145,131.3104 496.411,131.5204 C497.03,132.0114 497.726,131.9034 498.171,131.6374 C498.617,131.3734 499.044,130.8124 498.908,130.0344 C498.849,129.7004 499.031,129.3854 499.348,129.2694 C499.667,129.1524 500.008,129.2744 500.179,129.5664 C500.58,130.2484 501.268,130.3974 501.779,130.3134 C502.29,130.2264 502.891,129.8584 503.045,129.0834 C503.111,128.7514 503.396,128.5084 503.733,128.5284 C504.071,128.5354 504.345,128.7724 504.4,129.1064 C504.527,129.8874 505.115,130.2764 505.622,130.3804 C506.128,130.4844 506.823,130.3584 507.247,129.6914 C507.428,129.4054 507.774,129.2954 508.088,129.4224 C508.402,129.5504 508.572,129.8714 508.502,130.2034 C508.338,130.9764 508.746,131.5514 509.181,131.8324 C509.616,132.1114 510.308,132.2454 510.945,131.7754 C511.217,131.5754 511.581,131.5964 511.827,131.8294 C512.073,132.0624 512.115,132.4234 511.929,132.7064 C511.499,133.3684 511.67,134.0514 511.975,134.4704 C512.28,134.8894 512.877,135.2634 513.64,135.0564 C513.967,134.9654 514.297,135.1184 514.443,135.4244 C514.588,135.7304 514.498,136.0824 514.222,136.2794 C513.582,136.7404 513.495,137.4394 513.627,137.9404 C513.76,138.4414 514.182,139.0054 514.968,139.0884 C515.305,139.1234 515.558,139.3834 515.584,139.7214 C515.609,140.0594 515.398,140.3544 515.07,140.4394 C514.305,140.6374 513.972,141.2584 513.915,141.7734 C513.858,142.2884 514.047,142.9674 514.751,143.3274 C515.052,143.4824 515.194,143.8164 515.096,144.1404 C514.997,144.4644 514.693,144.6674 514.357,144.6244 C513.574,144.5344 513.038,144.9914 512.798,145.4514 C512.559,145.9114 512.491,146.6124 513.016,147.2024 C513.242,147.4564 513.253,147.8184 513.043,148.0854 C512.836,148.3524 512.48,148.4284 512.18,148.2694 C511.481,147.9004 510.817,148.1344 510.428,148.4774 C510.039,148.8194 509.722,149.4484 509.999,150.1884 C510.118,150.5054 509.998,150.8484 509.707,151.0224 C509.416,151.1954 509.056,151.1374 508.835,150.8824 C508.316,150.2854 507.613,150.2634 507.126,150.4424 C506.639,150.6214 506.116,151.0934 506.107,151.8844 C506.102,152.2234 505.866,152.4984 505.533,152.5554 C505.492,152.5624 505.452,152.5644 505.413,152.5644 L505.413,152.5644 Z" id="Fill-238" fill="#AED1F3"></path>
            <path d="M503.5122,131.0683 C498.2072,131.0683 493.8922,135.3833 493.8922,140.6883 C493.8922,145.9923 498.2072,150.3083 503.5122,150.3083 C508.8172,150.3083 513.1322,145.9923 513.1322,140.6883 C513.1322,135.3833 508.8172,131.0683 503.5122,131.0683 M503.5122,151.1103 C497.7652,151.1103 493.0902,146.4353 493.0902,140.6883 C493.0902,134.9413 497.7652,130.2663 503.5122,130.2663 C509.2592,130.2663 513.9342,134.9413 513.9342,140.6883 C513.9342,146.4353 509.2592,151.1103 503.5122,151.1103" id="Fill-239" fill="#AED1F3"></path>
            <path d="M503.5122,133.1401 C499.3502,133.1401 495.9642,136.5261 495.9642,140.6881 C495.9642,144.8501 499.3502,148.2361 503.5122,148.2361 C507.6742,148.2361 511.0602,144.8501 511.0602,140.6881 C511.0602,136.5261 507.6742,133.1401 503.5122,133.1401 M503.5122,149.0381 C498.9082,149.0381 495.1612,145.2921 495.1612,140.6881 C495.1612,136.0831 498.9082,132.3381 503.5122,132.3381 C508.1162,132.3381 511.8632,136.0831 511.8632,140.6881 C511.8632,145.2921 508.1162,149.0381 503.5122,149.0381" id="Fill-240" fill="#AED1F3"></path>
            <path d="M181.6353,128.352 L180.2483,121.468 C179.8203,119.341 181.2823,117.297 183.4343,117.017 L222.0263,112.001 L260.8543,85.51 L262.6973,88.085 L224.2093,119.772 L181.6353,128.352 Z" id="Fill-241" fill="#1B3355"></path>
            <path d="M264.7017,82.2084 L263.8047,82.5464 C260.9127,83.6334 259.4497,86.8594 260.5377,89.7504 L271.9067,85.4754 C270.8187,82.5834 267.5937,81.1214 264.7017,82.2084" id="Fill-242" fill="#FFD295"></path>
            <polygon id="Fill-243" fill="#354F77" points="185.3833 180.0883 207.1983 180.0883 220.7353 244.0373 215.0413 316.5313 211.4253 316.5313 209.5893 244.0373"></polygon>
            <path d="M202.9087,91.7997 L202.9087,90.3227 L188.4097,90.3227 L188.4097,106.2987 L188.4097,113.5477 L195.6587,113.5477 L195.6587,106.2987 L197.2507,106.2987 C200.3757,106.2987 202.9087,103.7647 202.9087,100.6397 L202.9087,99.0497 L206.4777,99.0497 L202.9087,91.7997 Z" id="Fill-244" fill="#FFD295"></path>
            <path d="M194.0386,77.3012 L194.0386,77.3012 C200.9086,77.3012 206.4776,82.8702 206.4776,89.7402 L206.4776,90.3232 L188.4096,90.3232 L188.4096,106.2992 L182.9126,95.3032 C178.7766,87.0322 184.7916,77.3012 194.0386,77.3012" id="Fill-245" fill="#0F1B2D"></path>
            <path d="M175.5679,175.7563 L207.7729,175.7563 L207.7729,119.9243 C207.7729,116.4023 204.9179,113.5483 201.3959,113.5483 L181.9449,113.5483 C178.4219,113.5483 175.5679,116.4023 175.5679,119.9243 L175.5679,175.7563 Z" id="Fill-246" fill="#1B3355"></path>
            <polygon id="Fill-247" fill="#495A75" points="175.568 181.105 207.773 181.105 207.773 175.756 175.568 175.756"></polygon>
            <polygon id="Fill-248" fill="#1B3355" points="176.5698 179.8842 196.5118 179.8842 180.5298 316.2982 176.5698 316.2982"></polygon>
            <polygon id="Fill-249" fill="#0D1016" points="211.3482 313.7465 233.0602 316.4965 233.0602 319.2105 211.3832 319.2105"></polygon>
            <polygon id="Fill-250" fill="#0D1016" points="176.6402 313.8041 197.8952 316.4481 198.2962 319.1601 176.6202 319.1601"></polygon>
            <path d="M188.5747,98.2626 C187.0447,98.2626 185.8037,97.0216 185.8037,95.4906 C185.8037,93.9596 187.0447,92.7186 188.5747,92.7186" id="Fill-251" fill="#FFD295"></path>
            <polygon id="Fill-252" fill="#FFFFFF" points="188.0796 113.5478 196.3706 148.8768 196.3706 113.5478"></polygon>
            <path d="M225.5444,189.7123 L183.6634,202.9303 C183.3634,203.0253 183.0444,202.8583 182.9494,202.5583 L174.1594,174.7083 C174.0654,174.4083 174.2314,174.0893 174.5314,173.9943 L216.4124,160.7763 C216.7124,160.6823 217.0314,160.8493 217.1264,161.1493 L225.9154,188.9983 C226.0104,189.2983 225.8444,189.6173 225.5444,189.7123" id="Fill-253" fill="#E3E5E5"></path>
            <path d="M174.6011,174.2133 C174.4221,174.2703 174.3241,174.4603 174.3791,174.6393 L183.1681,202.4883 C183.2251,202.6673 183.4161,202.7673 183.5941,202.7103 L225.4751,189.4933 C225.6541,189.4373 225.7521,189.2453 225.6971,189.0673 L216.9071,161.2173 C216.8511,161.0393 216.6601,160.9403 216.4821,160.9963 L174.6011,174.2133 Z M225.6141,189.9323 L183.7331,203.1493 C183.3131,203.2813 182.8631,203.0483 182.7301,202.6273 L173.9411,174.7773 C173.8081,174.3573 174.0421,173.9073 174.4621,173.7753 L216.3431,160.5573 C216.7631,160.4253 217.2131,160.6583 217.3461,161.0793 L226.1351,188.9293 C226.2681,189.3493 226.0341,189.7993 225.6141,189.9323 L225.6141,189.9323 Z" id="Fill-254" fill="#1C3355"></path>
            <path d="M202.5923,181.0473 C203.0373,182.4583 202.2553,183.9623 200.8443,184.4073 C199.4333,184.8533 197.9293,184.0703 197.4843,182.6593 C197.0383,181.2483 197.8213,179.7443 199.2323,179.2993 C200.6433,178.8543 202.1473,179.6363 202.5923,181.0473" id="Fill-255" fill="#FFFFFF"></path>
            <path d="M200.1763,197.0248 L201.0063,197.5048 C203.6823,199.0498 207.1033,198.1338 208.6483,195.4588 L198.1303,189.3838 C196.5853,192.0588 197.5013,195.4798 200.1763,197.0248" id="Fill-256" fill="#FFD295"></path>
            <path d="M182.0601,114.4931 L183.617,115.034 C185.95,115.78 187.163,118.348 186.256,120.623 L172.2391,157.5161 L200.0381,191.4571 L197.6951,193.8201 L163.1271,159.0321 L176,117.5 C176.785,115.044 179.413,113.689 181.869,114.475" id="Fill-257" fill="#354F77"></path>
            <path d="M557.5828,293.5492 C557.5828,298.4162 531.615886,302.3622 499.5828,302.3622 C467.549714,302.3622 441.5828,298.4162 441.5828,293.5492 C441.5828,288.6812 467.549714,284.7352 499.5828,284.7352 C531.615886,284.7352 557.5828,288.6812 557.5828,293.5492" id="Fill-258" fill="#357BA3" opacity="0.60328311"></path>
            <g id="Group-97" transform="translate(456.000000, 199.000000)">
                <path d="M38.2880037,92.4312702 L38.2880037,5.82303629 C38.2880037,2.87778629 40.7008262,0.481028226 43.6658168,0.481028226 L79.720714,0.481028226 C82.6857047,0.481028226 85.0985271,2.87778629 85.0985271,5.82303629 L85.0985271,92.4312702 L38.2880037,92.4312702 Z" id="Fill-259" fill="#E1EAFC"></path>
                <path d="M79.7205533,-1.0658141e-13 L43.6664598,-1.0658141e-13 C40.4281981,-1.0658141e-13 37.8047963,2.60753226 37.8047963,5.82343548 L37.8047963,92.9115 L85.5830206,92.9115 L85.5830206,5.82343548 C85.5830206,2.60753226 82.9580112,-1.0658141e-13 79.7205533,-1.0658141e-13 M79.7205533,0.961258065 C82.4195065,0.961258065 84.6153196,3.14245161 84.6153196,5.82343548 L84.6153196,91.9502419 L38.7716935,91.9502419 L38.7716935,5.82343548 C38.7716935,3.14245161 40.9675065,0.961258065 43.6664598,0.961258065 L79.7205533,0.961258065" id="Fill-260" fill="#1C3355"></path>
                <polygon id="Fill-261" fill="#92C5ED" points="61.6933458 10.3126065 78.8716449 10.3126065 78.8716449 7.41685645 61.6933458 7.41685645"></polygon>
                <polygon id="Fill-262" fill="#52A1CA" points="61.6933458 15.1444452 78.8716449 15.1444452 78.8716449 12.2478968 61.6933458 12.2478968"></polygon>
                <path d="M0.483207477,94.5160984 L0.483207477,17.51805 C0.483207477,14.5712032 2.89683364,12.1744452 5.8618243,12.1744452 L41.9167215,12.1744452 C44.8817121,12.1744452 47.2945346,14.5712032 47.2945346,17.51805 L47.2945346,94.5160984 L0.483207477,94.5160984 Z" id="Fill-263" fill="#F3F6FF"></path>
                <path d="M41.9165607,11.694375 L5.86246729,11.694375 C2.62420561,11.694375 -1.13686838e-13,14.3019073 -1.13686838e-13,17.5178105 L-1.13686838e-13,94.9964879 L47.7782243,94.9964879 L47.7782243,17.5178105 C47.7782243,14.3019073 45.153215,11.694375 41.9165607,11.694375 M41.9165607,12.6556331 C44.6147103,12.6556331 46.8113271,14.8368266 46.8113271,17.5178105 L46.8113271,94.0360282 L0.967700935,94.0360282 L0.967700935,17.5178105 C0.967700935,14.8368266 3.16271028,12.6556331 5.86246729,12.6556331 L41.9165607,12.6556331" id="Fill-264" fill="#1C3355"></path>
                <polygon id="Fill-265" fill="#92C5ED" points="23.8887103 26.2731629 41.0678131 26.2731629 41.0678131 23.3766145 23.8887103 23.3766145"></polygon>
                <polygon id="Fill-266" fill="#52A1CA" points="23.8887103 21.442921 41.0678131 21.442921 41.0678131 18.5463726 23.8887103 18.5463726"></polygon>
                <path d="M28.0418673,98.1556258 L28.0418673,36.9448839 C28.0418673,34.1249806 30.3518112,31.8304161 33.1898112,31.8304161 L66.0345776,31.8304161 C68.874185,31.8304161 71.184129,34.1249806 71.184129,36.9448839 L71.184129,98.1556258 L28.0418673,98.1556258 Z" id="Fill-267" fill="#FFFFFF"></path>
                <path d="M66.0349794,31.3499468 L33.1902131,31.3499468 C30.0797458,31.3499468 27.557615,33.8552855 27.557615,36.9450435 L27.557615,98.6356161 L71.6675776,98.6356161 L71.6675776,36.9450435 C71.6675776,33.8552855 69.1454467,31.3499468 66.0349794,31.3499468 M66.0349794,32.3104065 C68.6069421,32.3104065 70.7006804,34.3902048 70.7006804,36.9450435 L70.7006804,97.6751565 L28.5253159,97.6751565 L28.5253159,36.9450435 C28.5253159,34.3902048 30.6182505,32.3104065 33.1902131,32.3104065 L66.0349794,32.3104065" id="Fill-268" fill="#1C3355"></path>
                <polygon id="Fill-269" fill="#52A1CA" points="41.2944673 42.5538726 57.5846355 42.5538726 57.5846355 39.6573242 41.2944673 39.6573242"></polygon>
                <polygon id="Fill-270" fill="#CFE1F9" points="41.2944673 47.7362032 65.651757 47.7362032 65.651757 44.8404532 41.2944673 44.8404532"></polygon>
                <polygon id="Fill-271" fill="#FCC06F" points="61.1066168 42.5538726 65.6509533 42.5538726 65.6509533 39.6573242 61.1066168 39.6573242"></polygon>
            </g>
            <path d="M408.556,134.76 L412.492,134.76 L412.492,132.83 L408.556,132.83 L408.556,134.76 Z M407.352,135.964 L413.695,135.964 L413.695,131.627 L407.352,131.627 L407.352,135.964 Z" id="Fill-272" fill="#1C3355"></path>
            <path d="M413.695,134.278 L415.061,134.278 L415.061,133.313 L413.695,133.313 L413.695,134.278 Z M412.492,135.482 L416.264,135.482 L416.264,132.11 L412.492,132.11 L412.492,135.482 Z" id="Fill-273" fill="#1C3355"></path>
            <path d="M448.3404,259.9731 L427.7244,259.9731 C425.4014,259.9731 423.5114,258.0831 423.5114,255.7611 L423.5114,137.4221 C423.5114,135.7631 422.1614,134.4131 420.5024,134.4131 L415.6624,134.4131 L415.6624,133.2091 L420.5024,133.2091 C422.8244,133.2091 424.7144,135.0991 424.7144,137.4221 L424.7144,255.7611 C424.7144,257.4201 426.0644,258.7701 427.7244,258.7701 L448.3404,258.7701 L448.3404,259.9731 Z" id="Fill-274" fill="#1C3355"></path>
            <path d="M451.646,260.336 L455.583,260.336 L455.583,258.406 L451.646,258.406 L451.646,260.336 Z M450.443,261.539 L456.786,261.539 L456.786,257.202 L450.443,257.202 L450.443,261.539 Z" id="Fill-275" fill="#1C3355"></path>
            <path d="M449.077,259.854 L450.443,259.854 L450.443,258.889 L449.077,258.889 L449.077,259.854 Z M447.874,261.057 L451.646,261.057 L451.646,257.685 L447.874,257.685 L447.874,261.057 Z" id="Fill-276" fill="#1C3355"></path>
        </g>
    </g>
</svg>